<svg xmlns="http://www.w3.org/2000/svg" xmlns:xlink="http://www.w3.org/1999/xlink" fill="none" version="1.1" width="260" height="48" viewBox="0 0 260 48"><g style="mix-blend-mode:passthrough"><path d="M7.28125,8.20312L7.28125,8.3125L7.32812,8.3125Q7.4375,8.3125,7.4375,8.20312L7.28125,8.20312ZM20.3125,39.4219L22.7344,39.4219L22.7344,38.8125Q21.5312,39.2344,20.3125,39.4219ZM7.28125,25.2812L7.28125,25.5625Q7.60938,25.3594,7.60938,25.2812L7.28125,25.2812ZM31.1094,25.2812Q31.1094,25.375,30.9531,25.5625Q30.9531,25.6406,31.1094,25.7344L31.1875,25.4531L31.1875,25.2812L31.1094,25.2812ZM7.375,27.6719L7.375,28.6406Q8.98438,27.2812,12.2188,24.9219Q8.15625,27.6719,7.375,27.6719ZM15.2188,26.3125L15.2188,26.3906L15.2969,26.3906Q15.9688,25.9844,16.375,25.9844L16.7031,26.1562L16.7031,25.0938Q15.4062,26.3125,15.2188,26.3125ZM30.0312,26.0312Q27.8281,27.4844,24.7031,29.2031L21.2656,31.5781Q21.2656,31.7031,20.9375,31.75Q19.8125,32.5781,19.6875,32.5781L19.6875,32.625L19.7812,32.625Q27.4688,28.0469,30.0312,26.1562L30.0312,26.0312ZM29.6406,26.7812Q29.7812,26.7031,29.875,26.5625L29.75,26.5625Q29.7031,26.6094,29.6406,26.6406L29.6406,26.7812ZM30.1875,27.1562L30.2344,27.1562Q30.6875,27.1094,30.7812,27.0625Q31.1094,27.1406,31.3438,27.3281L31.5469,25.9375Q31.0312,26.4531,30.1875,27.1562ZM22.6562,27.5781Q23.7812,26.7969,23.8125,26.75L23.7344,26.75Q23.4062,26.9375,22.8281,27.0156Q22.8281,27.125,22.6562,27.5781ZM25.2656,27.7812L25.2656,27.8281L25.3594,27.8281Q25.9688,27.3281,26.75,26.9531L26.75,26.9062L26.6719,26.9062L25.2656,27.7812ZM16.6562,27.5781Q15.9844,28.4219,14.3594,29.5312L11.6562,31.5Q15.625,28.8594,16.3125,28.8594L16.7031,29.0312L16.7031,27.5781L16.6562,27.5781ZM7.48438,30.2031L7.375,30.2031L7.375,30.7812L8.54688,29.8125Q7.82812,30.2031,7.48438,30.2031ZM7.375,32.7344L7.375,33.6562Q8.46875,32.6719,11.9531,30.1562Q8.125,32.7344,7.375,32.7344ZM16.6562,30.2812Q16.625,30.5156,15.9062,30.9688L16.1719,30.9688L16.3125,30.9688Q16.5,30.9688,16.7031,31.125L16.7031,30.2812L16.6562,30.2812ZM28.7656,31.6719L28.7656,31.7188L28.8125,31.7188L29.375,31.5469Q29.6875,31.6562,29.875,31.7812Q30.4219,30.5781,30.4219,30.4688Q29.2969,31.4062,28.7656,31.6719ZM22.8281,34.5L22.8281,34.5469L22.9219,34.5469Q23.2969,34.2344,27.3438,31.6719L27.3438,31.625L27.2969,31.625Q27.1562,31.625,22.8281,34.5ZM16.75,32.4688L16.75,32.625L16.7969,32.625Q17.1719,32.4375,17.1719,32.375L16.8438,32.375Q16.75,32.375,16.75,32.4688ZM13.4219,34.5156L13.4219,34.5625L13.4844,34.5625Q14.3281,34.1562,16.7031,32.4688L16.7031,32.2344Q15.25,33.4844,13.4219,34.5156ZM15.375,36.375L15.375,36.4531L15.4375,36.4531Q18.4844,34.7656,20.7344,33.2344L20.7344,33.1875L20.6875,33.1875L15.375,36.375ZM28.1562,34.0781L28.2812,34.125L28.3906,33.9062Q28.1562,33.9844,28.1562,34.0781ZM8.54688,38.5938L8.59375,38.5938Q11.5781,37.0781,15.9688,34.25L15.9688,34.2031L15.9219,34.2031Q14.4531,35,10.4062,37.4688Q8.9375,38.1406,8.54688,38.5938ZM12.6406,35.2344L12.6406,35.2812L12.7344,35.2812L12.7344,35.2344L12.6406,35.2344ZM7.28125,35.9531L7.28125,36.2344Q7.65625,35.9688,7.65625,35.9062Q7.4375,35.9531,7.28125,35.9531ZM16.1875,38.9531L17.2969,38.9531Q17.2969,38.5,18.7656,37.3594Q17.0625,38.4844,16.1875,38.9531ZM21.7188,38.7188L21.7188,38.7656L21.7656,38.7656Q22.25,38.6719,22.25,38.5469L22.25,38.4375L22.2031,38.4375Q21.8281,38.7188,21.7188,38.7188ZM9.875,38.9688L10.9688,38.9688Q10.9688,38.6094,11.4844,38.0781L11.4375,38.0781L9.875,38.9688ZM12.0781,38.8906L12.0781,38.9375L12.2031,38.9375Q12.5312,38.6562,12.5312,38.6094Q12.1562,38.8906,12.0781,38.8906ZM7.375,22.8438L7.375,23.1719Q7.625,23.0156,7.90625,22.7188Q7.51562,22.8438,7.375,22.8438ZM16.6562,22.5156Q15.9375,23.375,13.8906,24.8594Q11.9844,26.1719,11.4844,26.6094Q15.5469,23.9062,16.1875,23.9062L16.4844,23.9062L16.7031,24.0781L16.7031,22.5156L16.6562,22.5156ZM28.4844,24.5Q30.7031,23.0625,31.2656,23.0625Q31.4375,23.0625,31.6875,23.2812L31.6875,22.7344Q31.6875,22.4375,31.6875,21.8906Q30.6562,22.9844,28.4844,24.5ZM23.5781,22.9375L23.4844,22.9375L23.4844,23.7812Q24.0938,23.2188,26.5156,21.2812Q24.1094,22.9375,23.5781,22.9375ZM31.0625,21.75Q31.0625,21.7969,31.0156,21.9219L31.1094,21.9688L31.1094,21.75L31.0625,21.75ZM16.1406,21.75Q16.1406,21.7969,16.0938,21.9219L16.1875,21.9688L16.1875,21.75L16.1406,21.75ZM7.89062,21.0781Q8.28125,20.7656,8.35938,20.7656L8.35938,20.7188L8.3125,20.7188Q8.07812,20.8438,7.89062,20.9375L7.89062,21.0781ZM7.75,21Q7.53125,21.0625,7.375,21.0625L7.375,21.5156Q7.57812,21.3438,7.75,21.2031L7.75,21ZM22.9844,19.7344Q23.0312,19.8281,23.0312,19.9062Q23.2656,19.8281,23.3594,19.6094Q22.9844,19.6562,22.9844,19.7344ZM16,20.1875L16.2812,20.125Q16.4375,20.125,16.7031,20.2812L16.7031,19.4531L16,20.1875ZM23.3125,21.0625Q23.3594,21.4375,23.3594,21.6875L23.3594,21.7344L23.4062,21.7344Q24.1406,21.0469,26.3594,19.2344Q24,20.875,23.3125,21.0156L23.3125,21.0625ZM7.89062,19.2656L8.35938,18.8594L8.3125,18.8594Q8.09375,18.9844,7.89062,19.0312L7.89062,19.2656ZM7.75,19.0312Q7.57812,19.0625,7.42188,19.0625L7.375,19.0625L7.375,19.6875L7.75,19.375L7.75,19.0312ZM31.1719,18.3594Q31.1719,18.9062,27.8906,21.3438Q27.2812,21.7969,27.2812,21.8438Q30.4219,19.6875,31.0156,19.6875L31.0625,19.6875Q31.25,19.6875,31.4375,19.8594L31.4375,19.7344L31.2188,18.3594L31.1719,18.3594ZM15.8281,18.5625L16.2031,18.5156L16.3281,18.5156Q16.5156,18.5156,16.7031,18.6875L16.7031,17.75L15.8281,18.5625ZM22.4219,18.2969Q22.5938,18.5625,22.5938,18.6875L22.6562,18.6875Q23.0156,18.2969,24.2969,17.25Q23.0156,18.0625,22.4219,18.2969ZM21.3438,17.9375Q21.3906,18.0312,21.3906,18.1094L21.5,18.1094Q21.5,18.0156,21.5938,17.8594L21.5,17.8594Q21.3906,17.9375,21.3438,17.9375ZM30.6094,16.4688Q30.6094,17.0781,27.6562,19.3594Q27.4062,19.5,27.125,19.7812Q30.0469,17.75,30.7812,17.75L31.0625,17.9219L31.0625,17.7969L30.6875,16.4688L30.6094,16.4688ZM15.3906,17.0781L15.3906,17.125L15.4531,17.125Q15.9531,16.875,16.2812,16.875L16.3281,16.875Q16.5156,16.875,16.7031,17.0312L16.7031,15.9688Q15.5469,17.0781,15.3906,17.0781ZM10.5156,15.3906Q8.59375,16.6875,7.42188,16.875Q7.42188,16.7969,7.375,16.7969L7.375,17.7031Q8.76562,16.5312,10.625,15.4375L10.625,15.3906L10.5156,15.3906ZM30.125,15.2656Q30.125,15.5469,29.5938,16.0938L29.7188,16.0938Q29.8594,15.9688,30.0312,15.9688L30.125,15.9688Q30.3125,15.9688,30.5156,16.1406L30.5156,16.0938Q30.1875,15.3594,30.1875,15.2656L30.125,15.2656ZM17.2969,15.1719L17.2969,31.1562Q19.125,31.1562,20.6875,29.6094Q20.6875,29.25,21.5625,28.4219Q22.875,26.1562,22.875,23.1875Q22.875,17.8906,19.2656,15.6406Q18.0625,15.1719,17.2969,15.1719ZM16.0938,15.875Q16.0938,16,16.1875,16L16.1875,15.875L16.0938,15.875ZM18.5938,15.2812L18.7188,15.2812Q18.7812,15.2812,18.9219,15.0469Q18.5938,15.1875,18.5938,15.2812ZM29.0938,14.9531Q29.3438,14.8281,29.5312,14.8281L29.625,14.8281Q29.7969,14.8281,29.9531,14.9375L29.9531,14.8906Q29.6094,14.0781,29.375,13.8438Q29.375,14.5312,27.5781,15.7656L27.5156,15.8906Q28.375,15.2812,28.9531,15.0156L28.9531,14.9531L29.0938,14.9531ZM21.3281,15Q21.8438,14.5,22.75,13.7656Q21.0625,14.8125,20.9531,15L21.3281,15ZM20.9219,15.0625Q20.8281,15.1875,20.4062,15.2344Q20.3906,15.3281,20.0781,15.3906L20.0781,15.4375Q20.0781,15.4844,20.5781,15.8125Q20.5781,15.6406,21.2344,15.0625L20.9219,15.0625ZM28.7344,12.8594Q28.7344,13.2031,28.3281,13.5938L28.4062,13.5938Q28.5625,13.5,28.8906,13.4375Q29.1094,13.5312,29.2188,13.5312Q28.7969,12.8594,28.7344,12.8594ZM9.21875,17.6719L9.21875,17.7188L9.3125,17.7188Q12.7188,15.6406,16.7031,12.8125L16.7031,12.75L16.6562,12.75Q12.1562,15.6406,9.21875,17.6719ZM26.9688,11.0469Q26.9688,11.6562,24.8906,13.2188Q27.1094,11.7969,27.6719,11.7969Q27.7969,11.875,27.8438,11.875Q27.8438,11.7969,27.0156,11.0469L26.9688,11.0469ZM7.375,13.3281L7.375,14.2344Q8.76562,13.0938,12.6875,10.4844Q8.17188,13.3281,7.375,13.3281ZM17.3438,13.5156L17.3438,13.5938L17.4062,13.5938Q19.8906,12.0469,22.3281,10.4375L22.3281,10.375L22.2656,10.375Q20.5312,11.4062,17.3438,13.5156ZM25.875,10.2031L25.875,10.4688Q25.875,10.5156,25.375,11.0781L25.4531,11.0781Q26,10.6875,26.3438,10.6875L26.4688,10.6875L26.4688,10.6406Q26.4688,10.5469,25.9375,10.2031L25.875,10.2031ZM7.375,10.5312L7.375,10.9844Q7.875,10.625,8.20312,10.2031L8.15625,10.2031Q7.85938,10.4375,7.375,10.5312ZM19.5469,9.48438L12.9844,13.8438L12.9844,13.9219L13.0781,13.9219L19.6406,9.53125L19.6406,9.48438L19.5469,9.48438ZM24.3438,9.25Q24.3438,9.95312,23.6875,10.375Q22.4219,11.4375,17.6719,14.2812L17.7344,14.2812Q18.8438,13.75,24.2344,10.2656Q25.0312,9.84375,25.3281,9.84375Q25.3125,9.75,24.3438,9.25ZM22.1719,8.4375Q22.1719,9.40625,17.7812,12.1562Q16.8438,12.8281,16.75,12.8281L16.75,12.875L16.9219,12.875Q22.6562,8.9375,23.5781,8.9375L23.5781,8.89062Q22.5,8.4375,22.1719,8.4375ZM20.0781,8.48438L20.0781,8.75Q20.375,8.57812,20.5156,8.57812L20.5156,8.53125Q20.125,8.48438,20.0781,8.48438ZM17.25,7.76562Q17.25,8.46875,14.9531,9.9375L9.64062,13.5938Q16.7656,9.21875,18.25,8.375Q18.5,8.20312,19.2656,7.90625L19.2656,7.82812Q17.9688,7.76562,17.3438,7.76562L17.25,7.76562ZM14.7812,8.20312L14.7812,8.35938Q14.9375,8.25,15.0312,8.25L15.0312,8.20312L14.7812,8.20312ZM12,7.8125Q12,8.375,10.2812,9.64062L9.9375,9.95312Q12.9062,8.09375,13.5,7.8125L12,7.8125ZM8.84375,7.8125Q8.84375,8.03125,8.5,8.625Q9.67188,7.8125,9.76562,7.8125L8.84375,7.8125ZM22.7969,3.01562L22.7969,3.10938L22.7969,7.57812Q22.7969,7.67188,22.7969,7.67188L22.7969,7.57812L22.7969,3.10938Q22.7969,3.01562,22.7969,3.01562ZM3.85938,39.5781L0.640625,39.5781L3.8125,39.5781L3.8125,39.3438Q3.82812,39.2656,3.92188,39.2656L6.76562,39.2656Q6.76562,39.2656,6.76562,39.1562L6.76562,15.0469L0.59375,15L6.76562,15L6.76562,7.76562L2.60938,7.76562Q2.5,7.76562,2.5,7.70312L2.5,7.5625L0.640625,7.5625L0.640625,7.17188L2.51562,7.17188Q2.54688,7.17188,2.60938,7.17188L6.76562,7.17188L6.76562,4.70312Q6.78125,4.60938,6.89062,4.60938L7.25,4.60938Q7.25,4.60938,7.25,4.70312L7.25,7.1875L7.8125,7.1875L7.8125,2.71875Q7.8125,2.625,7.8125,2.625L7.8125,2.71875L7.8125,7.1875L15.4219,7.1875L15.4688,2.71875L15.4688,7.23438L16.9062,7.23438Q17.6875,7.23438,18.4375,7.23438L21.9531,7.23438Q22.0469,7.23438,22.0469,7.23438L21.9531,7.23438L19.8906,7.23438Q24.6562,7.90625,27.5625,10.8281Q32.3125,15.3906,32.3125,23.3594Q32.3125,33.2812,25.0469,37.7656Q23.9688,38.3594,22.875,38.7656L22.875,39.4219L30.0312,39.4219L30.0781,35.2344L30.0781,39.4219L36.9844,39.4219L36.9844,31.375L32.3438,31.3281L36.9844,31.3281L36.9844,23.1562L32.5938,23.1094L36.9844,23.1094L36.9844,15.0469L31.8906,15L36.9844,15L36.9844,7.5625L30.125,7.5625L30.0781,11.8594L30.0781,7.5625L23.0938,7.34375Q23,7.34375,23,7.34375L23.0938,7.34375L30.0312,7.34375L30.0781,2.875L30.0781,7.4375L36.9844,7.4375L37.0156,2.875L37.0156,44.1406L37.0156,39.5781L30.125,39.5781L30.0781,44.1406L30.0781,39.5781L22.875,39.5781L22.7969,44.0938Q22.7969,44.1875,22.7969,44.1875L22.7969,44.0938L22.7969,39.5781L18.9844,39.5781Q18.5781,39.5781,18.1562,39.5781L15.5156,39.5781L15.4688,44.125L15.4688,39.5781L8.42188,39.5781Q8.23438,39.5781,7.89062,39.625L7.8125,44.0781Q7.8125,44.1719,7.8125,44.1719L7.8125,44.0781L7.8125,39.6094Q7.67188,39.5781,7.39062,39.5781L7.32812,39.5781L7.32812,41.8281Q7.32812,41.9531,7.1875,41.9531L6.8125,41.9531Q6.8125,41.9531,6.8125,41.8281L6.8125,39.5781L3.92188,39.5781Q3.875,39.5781,3.85938,39.5781ZM0.5,23.1094L6.25,23.1094L0.5,23.1094ZM0.5,31.3281L5,31.3281L0.5,31.3281ZM58.6719,7.82812L58.6719,7.95312Q58.6719,8.26562,58.2812,8.65625L58.3281,8.65625Q59.5,8.09375,59.7344,8.09375L59.7344,8.03125Q59.6094,8.03125,58.6719,7.82812ZM50.2344,38.6094L50.7969,38.7812Q50.7969,38.5469,51.0469,38.2344L51,38.2344Q50.2344,38.5469,50.2344,38.6094ZM47.0938,36.625L47.3125,36.7969Q47.3125,36.7188,47.5156,36.4219L47.4688,36.4219Q47.0938,36.5312,47.0938,36.625ZM48.0938,37.3281L48.0938,37.4219Q48.4688,37.6562,48.6562,37.6562Q48.875,37.2188,50.1094,36.1562Q48.3594,37.3281,48.0938,37.3281ZM46.25,35.75L46.25,35.7969Q46.25,35.875,46.4062,35.9688Q46.4062,35.9219,46.5938,35.625L46.5469,35.625Q46.375,35.75,46.25,35.75ZM57.7188,34.7656Q54.2031,36.9219,52.6875,38.0312L52.7344,38.0312Q52.8906,38.0312,57.8125,34.8281L57.8125,34.7656L57.7188,34.7656ZM65.4375,35.625L65.4375,35.6719Q65.5781,35.6719,65.8125,35.8281L66.7812,34.7812L66.7812,34.7031Q65.5625,35.625,65.4375,35.625ZM53.875,32.25Q53.875,32.5469,53.5312,32.9062L53.5781,32.9062Q54.3281,32.5312,54.3281,32.4531Q54.2812,32.4531,53.875,32.25ZM52.8594,30.7656Q52.8594,31.2031,52.6406,31.7969L52.6875,31.7969Q52.9844,31.4844,53.2344,31.4844Q53.2344,31.3125,52.8594,30.7656ZM67.9219,31.5625L67.9219,31.625Q68.0156,31.625,68.2969,31.7969Q68.5156,31.3438,68.5156,31.1875L68.4688,31.1875Q68.0156,31.5625,67.9219,31.5625ZM43.25,31.6875Q43.2969,31.7969,43.2969,31.8438Q43.3906,31.8438,43.5312,31.6406L43.3594,31.6406L43.25,31.6875ZM61.5,31.1562L61.5,31.2031L61.5938,31.2031Q61.5938,31.1094,62.5312,30.6719L62.5312,30.5938L62.4844,30.5938L61.5,31.1562ZM59,30.7656L58.6719,30.7656Q57.3438,32.7969,55.5781,32.7969Q55.5781,32.75,55.5312,32.75Q55.5312,33.3906,53.4219,34.7969L52.9844,35.1562L53.0312,35.1562Q57.125,32.75,59.0781,31.0938Q59.9219,30.4688,60.0625,30.4219L60.0625,30.375L59.9844,30.375Q59.3125,30.7656,59,30.7656ZM65.5156,30.4375L65.5156,30.5156L65.6406,30.5156Q66.1719,30.0625,67.0625,29.6094L67.0625,29.5625L67,29.5625Q65.6562,30.4219,65.5156,30.4375ZM68.7812,29.2656Q68.7812,29.3594,68.9219,29.4375Q68.9219,29.3438,69.0312,29.0156Q68.9688,29.0156,68.7812,29.2656ZM59.9375,29.1875L59.8594,29.4844Q60.1875,29.2656,60.2656,29.2656L60.2656,29.1875L59.9375,29.1875ZM51.1094,27.3906Q51.1094,27.4688,50.9531,27.7344L51.2812,27.8438L51.2812,27.7812Q51.2031,27.3906,51.1094,27.3906ZM68.625,27.7344Q69,27.7344,69.2812,27.9375Q69.4375,27.1406,69.4375,26.9375L68.625,27.7344ZM43.0156,28.8906L42.8594,28.8906L42.8594,28.9375Q43.0938,29.6719,43.0938,29.7656Q44.25,28.6094,46.8594,26.5625Q43.4844,28.8906,43.0156,28.8906ZM50.8438,26.2344Q50.8438,26.3594,50.5312,26.6875Q50.8906,26.7344,51,26.7344L50.9531,26.2344L50.8438,26.2344ZM42.0938,27.0312L42.0938,27.1562Q42.2188,27.1562,42.2188,27.0312L42.0938,27.0312ZM60.7188,26.0625Q60.6719,26.5469,60.6719,26.6094L62.4062,25.2812Q61.6562,25.7812,60.7188,26.0625ZM66.9531,25.9688Q66.5781,26.2344,66.1094,26.5156L66.1094,26.5625L66.2344,26.5625Q66.625,26.3281,66.9531,26.1094L66.9531,25.9688ZM66.8281,26.0469Q68.4375,25.0781,69.1875,25.0781L69.2969,25.0781Q69.4688,25.0781,69.6719,25.2812L69.6719,25.0781L69.7344,24.4062Q69.5156,24.5781,69.3906,24.5781Q69.2969,24.5312,69.2344,24.5312Q68.5312,24.8281,66.8281,25.9219L66.8281,26.0469ZM50.6562,24.25Q49.9531,25.1719,47.9844,26.7812Q47.4531,27.1406,47.125,27.5156Q49.8906,25.4531,50.3281,25.4531L50.6406,25.4531L50.8438,25.625Q50.7031,24.9531,50.7031,24.25L50.6562,24.25ZM50.375,23.3594L50.6406,23.5156L50.6875,23.1406Q50.6094,23.1406,50.375,23.3594ZM50.375,22.2031L50.6719,22.3594L50.7188,21.8281Q50.6406,21.8281,50.375,22.2031ZM69.6406,21.375Q69.3906,21.8438,68,22.8125Q67.6875,22.9375,67.4531,23.1875Q68.9062,22.5312,69.3281,22.5312Q69.4531,22.5312,69.6875,22.6875L69.6875,22.5625Q69.6875,22.4688,69.6875,21.375L69.6406,21.375ZM69.2812,20.9688L69.375,21.0156L69.4531,21.0156L69.4531,20.7344Q69.3594,20.7344,69.2812,20.9688ZM60.875,22.25L60.875,22.4844L60.9531,23.1406L61,23.1406Q61.8594,22.3594,65.0781,19.9531Q61.625,22.25,60.875,22.25ZM60.1875,19.5312L60.2656,19.8125Q60.875,19.2344,60.9688,19.2344L60.9688,19.1875L60.9219,19.1875L60.1875,19.5312ZM48.0781,21.0156Q50.0938,19.6875,50.5781,19.6875L50.8438,19.6875L51.0469,19.8594Q51.0469,19.6875,51.375,18.5469L48.0781,21.0156ZM68.9375,17.5469Q68.9375,17.9531,66.7656,19.6875Q64.1406,21.6875,64.1406,21.7344Q68.2656,18.875,68.8906,18.875L69,18.875Q69.1406,18.875,69.3281,19.0312Q69.0625,17.5469,68.9375,17.5469ZM42.9531,17.2812Q42.9531,17.3594,42.8281,17.7812L42.9062,17.7812Q43.5,17.3281,43.5,17.2812L43.2344,17.3281L43.0781,17.3281L42.9531,17.2812ZM59.4375,17.5312Q59.4844,17.625,59.4844,17.7031L59.5312,17.7031Q59.625,17.7031,59.7656,17.4844L59.7031,17.4844L59.4375,17.5312ZM43.7188,19.4531L43.7188,19.5L43.8281,19.5Q44.4219,19.0781,47.8906,17.0156L47.8906,16.9688L47.8125,16.9688Q46.2969,17.8438,43.7188,19.4531ZM47.9531,17.0312L47.9531,17.0781L48.0469,17.0781L48.0469,17.0312L47.9531,17.0312ZM68.1875,16.2031L68.1875,16.5469Q68.2812,16.5469,68.3906,16.6562L68.3906,16.5938Q68.2812,16.2031,68.1875,16.2031ZM56.875,15.4375Q56.1562,15.3438,55.7344,15.3438Q55.5156,15.4375,55.3281,15.4375L56.875,15.4375ZM59.5312,28.1094Q60.2188,25.9531,60.2188,23.2344Q60.2188,17.1562,57.125,15.5625L55.0938,15.5625Q52.7344,16.6562,52.7344,17.1719Q52.2969,17.9219,52.0156,18.8281L52.0156,19.1406L51.9219,19.1406L51.9219,19.1094Q51.2969,21.1094,51.2969,23.7188Q51.2969,30.4688,54.4688,31.9062Q55.2344,32.2031,55.6875,32.2031Q57.25,32.2031,58.3125,30.5625Q58.3125,30.3594,59.0781,29.3281Q59.2344,28.9219,59.375,28.4844L59.375,27.7812Q59.375,27.6562,59.4844,27.6562L59.5312,27.7812L59.5312,28.1094ZM67.9844,14.4531Q67.9844,15.0469,67.1562,15.7656L67.2344,15.7656Q67.7969,15.3438,68.0938,15.3438Q68.2812,15.3438,68.4688,15.5469L68.4688,15.4531Q68.0469,14.5156,68.0469,14.4531L67.9844,14.4531ZM49.4531,14.5156L43.9375,18.0625L43.9375,18.1094L43.9844,18.1094Q46.0781,16.9062,49.5625,14.5781L49.5625,14.5156L49.4531,14.5156ZM57.7344,15.0938L57.7344,15.0781Q57.8281,15.0781,58.125,15.0312Q58.625,14.5,59.6094,13.7031Q58.1406,14.9062,57.7344,15.0938ZM67.2031,14.0938L67.2031,14.4375Q67.3438,14.4375,67.4844,14.5469Q67.2969,14.0938,67.2031,14.0938ZM66.8906,12.3906Q66.8906,12.8594,66.4844,13.2031L66.5625,13.2031Q66.9219,13.0469,67.0781,13.0469L67.3594,13.0938Q66.9688,12.4062,66.8906,12.3906ZM45.6406,11.9688L45.6875,11.9688Q45.8125,11.8438,45.9062,11.8438L45.9062,11.7344L45.8438,11.7344Q45.7656,11.7344,45.6406,11.9688ZM66.1562,11.5469Q66.1562,11.7188,66.1094,11.9531L66.2812,11.9531L66.5625,12Q66.2031,11.5469,66.1562,11.5469ZM64.8594,10.4688Q64.8594,11.0312,64.0938,11.5L63.5,12Q64.9062,11.125,65.6406,11.125Q65.6406,11.0625,64.8594,10.4688ZM63.75,10.3594L63.75,10.4062Q63.7969,10.5,63.7969,10.5625L63.9688,10.5625L63.9688,10.5156Q63.9688,10.4219,63.7969,10.3594L63.75,10.3594ZM56.6562,12L56.6562,12.0469L56.7031,12.0469Q59.0781,10.5156,60.2656,9.89062L60.2656,9.84375L60.2031,9.84375Q59.125,10.4375,56.6562,12ZM55.3906,11.4219L55.3906,11.4844L55.4688,11.4844L58.7969,9.42188L58.7969,9.375L58.75,9.375L55.3906,11.4219ZM56.0312,8.9375Q56.0312,8.98438,52.8594,10.9688L52.8594,11.0469L52.9844,11.0469Q52.9844,11,56.1406,8.98438L56.1406,8.9375L56.0312,8.9375ZM61.9531,9.23438L61.9531,9.28125Q61.9688,9.40625,62.0625,9.40625L62.1094,9.28125Q62.0469,9.28125,61.9531,9.23438ZM60.8281,8.40625L60.8281,8.73438Q61.0469,8.60938,61.2188,8.60938L61.2188,8.5L60.8281,8.40625ZM37.5,31L42,31L37.5,31ZM70.3125,23.4375L73.9844,23.4375L73.9844,15.5625L68.8906,14.875L73.9844,14.875L73.9844,7.54688L67.0469,7.54688L67,11.8438L67,7.54688L60.0781,7.54688Q63.9688,8.6875,66.875,12.0938Q70.3125,16.8281,70.3125,23.1406L70.3125,23.4375ZM69.7812,22.9688L69.6094,22.9688Q69.2969,23.3438,68.8438,23.75Q69.1875,23.625,69.375,23.625Q69.4844,23.625,69.7344,23.7969Q69.7656,23.2188,69.7812,22.9688ZM69.6562,23.7656L69.6562,23.6719Q69.6094,23.7188,69.5938,23.7656L69.6562,23.7656ZM70.3125,23.0312L70.3125,23.625Q70.3125,30.3906,67.0469,35.4219L67.0469,39.4219L73.9844,39.4219L73.9844,31.1094L69.3438,31L73.9844,31L73.9844,23.0312L70.3125,23.0312ZM66.9531,35.5312Q66.875,35.6406,66.7812,35.7344Q64.0938,38.3281,60.8438,39.4219L66.9531,39.4219L66.9531,35.5312ZM44.9531,14.0781Q44.6719,14.0781,44.5156,14.0781L44.125,14.0781L43.7031,15.1875L43.7344,15.1875Q44.5625,14.4375,44.9531,14.0781ZM52.125,10.7344L52.125,10.8125Q55.7344,8.4375,57.0938,7.67188L57.25,7.67188L57.25,7.625Q56.1094,7.5625,55.6562,7.5625L55.6562,7.71875Q55.4688,8.46875,53.3125,9.95312L52.125,10.7344ZM44.7969,14.7812Q44.9531,14.6719,45,14.6719L45,14.5938L44.9375,14.5938Q44.8594,14.6406,44.7969,14.6719L44.7969,14.7812ZM45.0938,11.7188Q45.8906,10.7031,46.8281,10Q46.8281,9.79688,49.2969,8.42188Q49.2969,8.21875,51.6406,7.54688L45.0938,7.54688L45.0938,11.7188ZM51.9688,8.89062Q51.875,9,51.7344,9.125Q51.8438,9.04688,51.9688,8.98438L51.9688,8.89062ZM52.25,10.5469L45.2188,15.1875L45.375,15.1875Q49.4844,12.4062,52.25,10.5938L52.25,10.5469ZM51.9531,8.60938Q53.1875,7.90625,53.4844,7.79688L53.4844,7.71875Q52.2188,7.92188,52.2188,8.03125Q52.2188,8.1875,51.9531,8.46875L51.9531,8.60938ZM54.4062,40.0312L54.3281,40.0312Q54.3594,40.0312,54.4062,40.0469L54.4062,40.0312ZM58.3125,39.4531Q59.1406,39.3438,59.375,39.125L59.375,38.5156L57.9375,39.4531L58.3125,39.4531ZM42.7344,23.4375L43.4844,23.4375Q45.0312,22.2031,47.5781,20.3906Q44.0781,22.8438,42.7344,23.4375ZM41.4062,23.0312L37.625,23.0312L41.4062,23.0312Q41.4062,18.9062,42.9844,15.5625L37.7031,14.875L43.0312,14.875Q43.7969,13.3438,44.9062,12Q44.9062,11.9219,44.9062,11.8906L44.9062,7.54688L37.75,7L44.9531,7L45.0156,2.89062Q45.0156,2.79688,45.0156,2.79688L45.0156,2.89062L45.0156,7.40625L51.8594,7.40625L51.9062,2.84375L51.9062,7.40625L52.125,7.40625Q52.4062,7.28125,52.75,7.09375Q54.5469,6.57812,55.7656,6.57812Q57.6719,6.57812,59.375,7.35938L59.4531,2.85938Q59.4531,2.76562,59.4531,2.76562L59.4531,2.85938L59.4531,7.45312Q59.5156,7.45312,59.5625,7.45312L59.6562,7.45312L66.9531,7.45312L67,2.84375L67,7.40625L73.9844,7.40625L74.0156,2.84375L74.0156,44.1406L74.0156,39.5781L67.0469,39.5781L67,44.1406L67,39.5781L60.4062,39.5781Q59.9844,39.6875,59.5312,39.75L59.4531,44.0156Q59.4531,44.1094,59.4531,44.1094L59.4531,44.0156L59.4531,39.7812Q57.6875,40.0781,55.7812,40.0781Q53.7656,40.0781,51.9531,39.75L51.9062,44.0781L51.9062,39.7344Q51.5,39.6562,51.1094,39.5781L45.0938,39.5781L45.0156,44.0938Q45.0156,44.1875,45.0156,44.1875L45.0156,44.0938L45.0156,39.5781L37.8594,39.5L44.9531,39.5L45.0156,35.2344Q45.0156,35.1406,45.0156,35.1406L45.0156,35.2344L45.0156,39.4219L50.7188,39.4219Q47.7031,38.2812,45.2344,35.5469Q41.4062,30.6719,41.4062,23.2031L41.4062,23.0312ZM42.4219,23.0312Q42.2031,23.0938,42.0469,23.0938L42.0469,23.9531Q42.5625,23.5469,43.2969,23.0312L42.4219,23.0312ZM54.3906,39.4219L54.4219,39.2656L54.375,39.2656Q54.1562,39.375,54.0469,39.4219L54.3906,39.4219ZM59.5312,38.8906Q60.4062,37.9062,62.1406,36.7969L59.5312,38.4219L59.5312,38.8906ZM80.9688,24.7031Q81.125,25.5312,81.2188,25.5312Q82.2031,24.2031,84.0312,22.3125Q81.3438,24.7031,80.9688,24.7031ZM79.8438,15.4531Q80.625,14.5625,81.8438,13.2656Q80.0625,14.8906,79.2344,15.4531L79.8438,15.4531ZM82.7344,15.7812Q82.6406,15.8281,82.5,16.0469Q82.6562,15.9062,82.7969,15.7812L82.7344,15.7812ZM81.7969,10.625Q83.3125,9.35938,83.6719,9.35938L83.6875,9.35938Q83.8125,9.35938,83.9531,9.45312L83.9531,9.40625Q83.6719,8.20312,83.6719,8.03125L83.625,8.03125Q83.5469,8.53125,81.7969,10.375L81.7969,10.625ZM81.8906,14.375Q81.4219,14.8281,81.4219,14.875Q81.6562,14.6562,81.8906,14.4531L81.8906,14.375ZM81.9219,14.2031L81.9219,14.2969Q84,12.4688,84.4219,12.4688L84.6406,12.4688L84.75,12.5938L84.75,12.5156Q84.4688,11.3125,84.4688,11.1406L84.4219,11.1406Q84.3281,11.7656,82.0312,14.0938Q81.9688,14.1562,81.9219,14.2031ZM81.6562,11.1094L81.6562,10.9219Q81.3438,11.2344,81.0156,11.5625Q80.4531,12.1094,80.4531,12.1562Q81.1094,11.5625,81.6562,11.1094ZM82.9844,15.4375L83.0312,15.4375Q84.5,14.1875,84.875,14.1875L85.1406,14.3438L85.1406,14.2969Q84.875,13.2812,84.875,13.1406L84.8281,13.1406Q84.8281,13.5156,82.9844,15.4375ZM79.7812,15.5469L79.0938,15.5469Q78.7969,15.7344,78.6719,15.7344Q78.8594,16.5625,78.9375,16.5625Q79.2344,16.1562,79.7812,15.5469ZM89.0469,7.78125L89.0469,11.9531L90.0156,7.78125L89.0469,7.78125ZM88.9531,7.78125L88.7656,7.78125Q88.6719,7.78125,88.6719,7.73438L88.6719,7.57812L85.8906,7.57812L85.8906,7.73438Q85.8906,7.78125,85.7969,7.78125L84.2344,7.78125L86.9531,20.5625L87,20.5625L88.9531,12.3438L88.9531,7.78125ZM80.0625,7.8125Q80.0625,8.1875,78.9844,9.70312Q80.7188,8.125,81.1562,7.8125L80.0625,7.8125ZM82.4219,7.78125L82.375,8.01562Q82.5312,7.85938,82.625,7.85938L82.625,7.78125L82.4219,7.78125ZM90.5312,8.29688L90.5312,8.34375Q90.7031,8.26562,90.7031,8.17188L90.6094,8.17188Q90.5312,8.20312,90.5312,8.29688ZM91.6094,7.90625L91.6094,8.01562L91.625,8.01562Q91.8438,7.875,91.8594,7.78125L91.6719,7.78125Q91.6094,7.8125,91.6094,7.90625ZM93.0156,7.8125Q93.0156,8.35938,90.7344,11.1562Q94.3906,7.8125,94.6719,7.8125L93.0156,7.8125ZM102.438,8.17188L102.391,8.40625Q102.609,8.26562,102.609,8.17188L102.438,8.17188ZM104.266,8.17188Q104.266,8.26562,104.172,8.5L104.219,8.5Q104.531,8.25,104.594,8.25L104.594,8.17188L104.266,8.17188ZM105.797,8.17188Q105.797,8.4375,105.672,8.625L105.719,8.625Q106.141,8.25,106.234,8.25L106.234,8.17188L105.797,8.17188ZM108.375,7.78125Q108.375,8.53125,106.5,10.1094L105.438,11.1094Q108.531,8.40625,109.125,8.40625L109.203,8.40625Q109.359,8.40625,109.516,8.57812Q109.688,7.875,109.688,7.78125L108.375,7.78125ZM95.5469,8.79688Q95.5781,8.90625,95.6406,8.90625L95.6406,8.79688L95.5469,8.79688ZM95.7344,9.5L95.7344,9.67188L95.8125,9.67188L95.8125,9.5L95.7344,9.5ZM77.2656,10.2031Q77.3594,10.5625,77.3594,10.6406Q78,9.82812,78,9.70312L77.2656,10.2031ZM95.6719,9.95312Q95.4531,10.6719,94.1562,11.9062L91.1719,14.8438Q94.2969,11.8594,95.4688,11.1562Q95.5469,11.1094,95.6719,11.1094L95.875,11.1094L96,11.2344L96,11.1562Q95.7344,9.95312,95.6719,9.95312ZM107.672,11.2812L107.672,11.3281L107.703,11.3281Q108.203,11,108.453,11L108.5,11Q108.812,11.1094,108.859,11.1094L109.125,9.92188Q108.188,10.9531,107.672,11.2812ZM84.1875,10.0469Q84.1875,10.1406,83.9844,10.4844Q84.1406,10.4844,84.2969,10.5625Q84.2969,10.4062,84.2344,10.0469L84.1875,10.0469ZM90.0156,10.4531L89.8281,10.4531Q89.8281,10.5469,89.6719,11.2812Q90.5156,10.3281,90.6562,10.0781Q90.1562,10.4531,90.0156,10.4531ZM77.9219,12.7031Q78.0938,13.3594,78.0938,13.4531L78.1406,13.4531Q78.8906,12.5312,81.1562,10.1406Q78.25,12.7031,77.9219,12.7031ZM96.4219,12.0625Q96.4219,12.1094,96.375,12.2188L96.4688,12.2812L96.5156,12.2812Q96.4688,12.1719,96.4688,12.0625L96.4219,12.0625ZM107.812,13.0312L107.812,13.1094Q108.156,13.1094,108.281,13.2656Q108.438,12.5781,108.438,12.4844L108.422,12.4844Q107.906,13.0312,107.812,13.0312ZM96.2812,12.6094Q96.2812,12.75,96.0625,13.0312Q96.3125,13.0312,96.4531,13.1406L96.4531,13.0938Q96.375,12.6094,96.2812,12.6094ZM101.094,13.4531L101.031,13.4531L100.891,14.125Q102.078,13,102.078,12.9531Q101.375,13.4531,101.094,13.4531ZM88.6562,15.4844Q88.6562,15.4375,88.6094,15.4375Q88.4375,16.0156,88.3906,16.3281L88.4375,16.3281L90.625,14.2188Q89.0781,15.4844,88.6562,15.4844ZM107.719,14.9219L107.859,15.0469Q107.859,15,107.906,14.7188Q107.828,14.7188,107.719,14.9219ZM78.1562,14.875L78.1562,14.9219L78.2344,14.9219L78.2344,14.875L78.1562,14.875ZM85.2188,14.8438Q85.125,15.3906,84.0625,16.3438L84.0625,16.3906L84.1562,16.3906Q84.8281,15.7188,85.2031,15.7188L85.4688,15.8438Q85.25,14.9688,85.25,14.8438L85.2188,14.8438ZM96.9062,14.8906Q96.9062,15.1562,96.4219,15.7969L96.7188,15.7344L96.8594,15.7344Q97,15.7344,97.1719,15.8906L96.9375,14.8906L96.9062,14.8906ZM100.625,15.8906L100.469,15.8906Q100.469,16.0312,100.344,16.5469L100.375,16.5469Q101.328,15.625,101.406,15.625L101.406,15.5625L101.359,15.5625Q100.891,15.8906,100.625,15.8906ZM79.1719,17.6094Q79.3281,18.1875,79.3281,18.2812L79.375,18.2812Q79.6562,17.7344,81.1562,16.2188Q81.3438,16.125,81.375,16Q79.5469,17.6094,79.1719,17.6094ZM85.5469,16.3906Q85.5469,16.5938,84.8594,17.375L84.9062,17.375Q85.3281,17.125,85.5,17.125L85.75,17.2812L85.75,17.2188Q85.5938,16.4844,85.5938,16.3906L85.5469,16.3906ZM97.4219,16.9531Q97.4219,17.4062,96.2031,18.5938L96.2188,18.5938Q96.9844,18.0938,97.4688,18.0938Q97.5781,18.0938,97.7812,18.2656L97.7812,18.1875Q97.5625,17.5,97.4688,16.9531L97.4219,16.9531ZM85.2344,18.9531L85.2812,18.9531Q85.5,18.7969,85.7031,18.7969Q85.8281,18.7969,85.9688,18.9062L85.9688,18.7969Q85.8281,18.2656,85.8281,18.125L85.2344,18.9531ZM100.125,18.5312L100.078,18.7969L100.125,18.7969Q100.375,18.5938,100.375,18.5312L100.125,18.5312ZM106.609,18.5156L106.609,18.625Q106.688,18.625,106.781,18.75L106.922,18.3125L106.875,18.3125Q106.703,18.5156,106.609,18.5156ZM79.6406,19.2969Q79.7031,19.6406,79.7031,19.7344L80.7812,18.5156Q80.3906,18.8438,79.6406,19.2969ZM86.0625,19.5781L86.0625,19.6875L86.125,19.6875L86.125,19.4531Q86.0625,19.4844,86.0625,19.5781ZM98.1562,19.7812Q98.1562,20.0781,97.6562,20.4531L97.6562,20.5L97.6719,20.5Q97.8594,20.4062,98.0469,20.4062L98.2188,20.4062L98.3594,20.5L98.3594,20.4531Q98.2188,19.7812,98.1562,19.7812ZM105.656,20.8281Q106.078,20.8281,106.219,21Q106.219,20.9062,106.438,20.0781Q105.656,20.7812,105.656,20.8281ZM93.3438,20.4062Q91.3125,21.7969,89.8594,23.1094Q89.2188,23.7188,89.125,23.7188L89.125,23.7656L89.2031,23.7656Q89.2031,23.7031,93.4219,20.4531L93.4219,20.4062L93.3438,20.4062ZM103.453,21.4844L102.391,22.3125L102.391,22.375L102.484,22.375Q103.016,21.9375,103.453,21.5938L103.453,21.4844ZM103.641,21.7969Q104.859,20.7812,105,20.6094L103.641,21.7031L103.641,21.7969ZM79.7812,21.0625L79.8281,21.3438L79.875,21.3438Q80.3594,20.7812,80.3594,20.7344L80.3438,20.7344Q79.7812,21.0156,79.7812,21.0625ZM86.4844,20.4375Q86.4844,20.7969,84.4844,22.9688L84.5312,22.9688Q86.7188,21.5312,86.7344,21.4375L86.7344,21.3906Q86.5781,20.4375,86.4844,20.4375ZM98.5312,21.0312Q98.5312,21.375,96.5625,23.2812Q96.4219,23.3438,96.1094,23.7344L96.1562,23.7344Q98.625,22.0781,98.625,21.9219Q98.625,21.2031,98.625,21.0312L98.5312,21.0312ZM80.3438,22.1406Q80.4062,22.4219,80.4844,22.4219L80.8281,21.9844L80.7812,21.9844Q80.5469,22.1406,80.3438,22.1406ZM105.516,22.9375L105.516,23.0156Q105.609,23.0156,105.719,23.1094Q105.844,22.7188,105.844,22.5625Q105.516,22.8594,105.516,22.9375ZM88.0469,22.625Q88.0469,22.7188,87.0469,23.4062L87.0469,23.4531L87.0625,23.4531L88.1406,22.7031L88.1406,22.625L88.0469,22.625ZM93.2031,23.625L93.2031,23.7344Q93.2031,23.8594,93.2812,23.8594L93.4844,23.5312L93.4219,23.5312Q93.2812,23.625,93.2031,23.625ZM92.4062,24.6719L92.4062,24.7656Q92.4844,24.7656,92.4844,24.6719L92.4062,24.6719ZM77.5781,8.53125L77.625,8.53125Q78.3906,7.82812,78.3906,7.78125L77.7344,7.78125Q77.6719,7.78125,77.5781,8.53125ZM98.7188,39.3594L98.7188,39.4375L98.8125,39.4375L98.8125,39.3594L98.7188,39.3594ZM85.1406,39.4375L85.1875,39.4375Q85.2812,39.4375,85.2812,39.3125L85.2344,39.3125Q85.1406,39.3438,85.1406,39.4375ZM100.5,38.9062L100.5,38.9844L101.359,38.9844L101.562,38.0938L101.469,38.0938Q100.594,38.8594,100.5,38.9062ZM86.6406,38.9844L87.1562,38.9844L87.7031,38.0469Q86.6406,38.9062,86.6406,38.9844ZM101.969,37.1562L102.094,37.1562L102.094,36.9844Q102.016,36.9844,101.969,37.1562ZM96.8906,38.1875Q97.0625,39.0156,97.1562,39.0156Q97.25,38.3906,99.3281,36.3594Q97.6875,37.7812,96.8906,38.1875ZM84.2812,37.6875Q84.375,38.1875,84.4688,38.1875Q84.7344,37.75,86.1406,36.3594Q84.9844,37.2969,84.2812,37.6875ZM89.3438,36.375L89.4062,36.4531L89.5,36.4531L89.5469,36.1562Q89.3438,36.2969,89.3438,36.375ZM101.156,35.75Q101.797,35.2969,102.031,35.2969Q102.219,35.375,102.328,35.375L102.609,34.2188L101.156,35.75ZM96.2344,36.0781Q96.375,36.6875,96.4531,36.6875Q97.4844,35.4531,99.4531,33.7344Q96.7188,36.0312,96.2344,36.0312L96.2344,36.0781ZM86.4062,32.4062Q84.4219,34.3125,83.5781,34.5938Q83.7031,35.0938,83.7031,35.2031L83.75,35.2031Q85.0469,33.6406,86.5,32.4531L86.5,32.4062L86.4062,32.4062ZM101.484,33.0625Q102.438,32.2812,102.766,32.2812L102.844,32.2812Q102.953,32.2812,103.094,32.4062Q103.172,32.2656,103.453,31.0781Q102.844,31.7344,101.484,33.0625ZM82.4688,31.4688Q82.4688,31.5625,82.5469,31.5625L82.6406,31.3906L82.5938,31.3906Q82.5156,31.4688,82.4688,31.4688ZM97.0625,29.9688Q95.6094,31.25,95.0625,31.25Q95.2344,31.8125,95.2344,31.9062Q96.1875,30.75,97.1562,30.0156L97.1562,29.9688L97.0625,29.9688ZM95.0156,30.3594L95.0156,30.4062Q95.0156,30.5156,95.0781,30.5156L95.1719,30.3594L95.0156,30.3594ZM89.3125,30.8594Q90.25,30.1406,90.5781,30.1406Q90.6875,30.1406,90.875,30.3125Q91.1875,29.125,91.1875,29.0312L91.1406,29.0312Q90.7344,29.5,89.3125,30.8594ZM94.3594,28.5Q94.4531,28.8594,94.4531,28.9531L94.5,28.9531Q94.5,28.8125,94.9219,28.3438L94.875,28.3438Q94.5781,28.5,94.3594,28.5ZM82.1406,28.875Q82.2656,29.4062,82.2656,29.5L82.3125,29.5Q82.6562,29.0469,83.3438,28.3438L83.2969,28.3438Q82.8281,28.6719,82.1406,28.875ZM95.5156,33L95.6719,33.7344Q97.5938,31.6094,100.734,29.1719L101.688,28.2969Q96.1875,33,95.5156,33ZM97.3125,27.8125Q97.3125,27.9219,97.0469,28.0312L97.0469,28.0781L97.1406,28.0781Q97.1406,27.9844,97.4062,27.8594L97.4062,27.8125L97.3125,27.8125ZM91.4688,28.0312L91.6406,28.0312L91.6875,27.8125Q91.5,27.9219,91.4688,28.0312ZM94.3281,27.6562L94.3281,27.75Q94.4062,27.75,94.4062,27.6562L94.3281,27.6562ZM97.7812,27.4219Q97.7812,27.5312,97.6562,27.5312L97.6562,27.5781L97.7344,27.5781Q97.7344,27.4844,97.875,27.4844L97.875,27.4219L97.7812,27.4219ZM81.5781,26.8125Q81.6719,27.1406,81.6719,27.1875Q81.7188,27.1875,82,26.75L81.9844,26.75Q81.75,26.8125,81.5781,26.8125ZM103.547,28.0156Q103.781,27.9062,103.938,27.9062L103.984,27.9062Q104.125,27.9062,104.266,28.0625L104.641,26.7031Q104,27.3125,103.547,27.7344L103.547,28.0156ZM103.453,27.8281Q102.484,28.7812,102.344,28.7969L102.344,28.8438L102.422,28.8438Q103.047,28.2812,103.453,28.0625L103.453,27.8281ZM91.8906,26.5469L91.8906,26.5938L91.9375,26.5938Q92.0156,26.5938,92.0156,26.5L92.0156,26.4219L91.9844,26.4219Q91.8906,26.4375,91.8906,26.5469ZM103.453,25.0938Q100.516,27.7031,100.422,27.7031L100.422,27.75L100.516,27.75Q101.062,27.2031,103.547,25.1719L103.547,25.0938L103.453,25.0938ZM103.641,25.7188L103.688,25.7188Q104.328,25.2656,104.578,25.2656L104.797,25.2656L104.938,25.375L105,25.375Q105,25.2812,105.328,24.1094L103.641,25.7188ZM93.4219,24.8594Q93.5625,25.375,93.5625,25.3906L94.9219,23.8594Q93.75,24.8594,93.4219,24.8594ZM90.3906,23.7656Q87.4375,26.1875,87.2812,26.2031L87.2812,26.25L87.3281,26.25Q88.7344,25.375,90.4844,23.8438L90.4844,23.7656L90.3906,23.7656ZM107.641,15.7812L107.391,15.7812L107.391,15.8125Q107.453,15.8125,107.547,15.9219Q107.641,15.9219,107.641,15.8125L107.641,15.7812ZM100.5,7.57812L96.3281,7.57812L96.3281,7.73438Q96.3281,7.78125,96.2344,7.78125L95.7188,7.78125Q95.7188,7.95312,98.8906,20.5625L98.9219,20.5625Q98.9219,20.3594,101.828,7.78125L100.609,7.78125Q100.5,7.78125,100.5,7.73438L100.5,7.57812ZM103.672,39.4219L110.984,39.4219L110.984,31.5781L106.344,31.5312L110.984,31.5312L110.984,23.5781L106.594,23.5312L110.984,23.5312L110.984,15.5469L108.156,15.5469Q107.281,18.8281,106.031,23.5312Q105.922,23.8125,101.828,39.0312L103.453,39.0312L103.5,35.2344L103.5,39.0312L103.531,39.0312Q103.672,39.0469,103.672,39.1406L103.672,39.4219ZM108.188,15.4531L110.984,15.4531L110.984,7.78125L110.266,7.78125Q110.188,7.78125,108.188,15.4531ZM90.4688,39.4219L94.9688,39.4219L94.9688,39.1406Q94.9688,39.0312,95.0625,39.0312L95.9375,39.0312L95.9375,36.7969L92.875,24.1875L92.8281,24.1875L89.1875,39.0312L90.375,39.0312Q90.4688,39.0469,90.4688,39.1406L90.4688,39.4219ZM89.0312,34.5781L89.0312,34.7031Q89.3281,34.4844,89.5156,34.4844Q89.6406,34.4844,89.8125,34.6406L90.0781,33.4531L89.0312,34.5781ZM88.9688,35.1719L88.9688,35.0938L88.7812,35.2812L88.8281,35.2812Q88.8906,35.2188,88.9688,35.1719ZM82.0156,39.75L81.9531,44.2656Q81.9531,44.3594,81.9531,44.3594L81.9531,44.2656L81.9531,39.5781L74.7969,39.5L81.8906,39.5L81.9531,35.2344Q81.9531,35.1406,81.9531,35.1406L81.9531,35.2344L81.9531,39.4219L82.25,39.4219L82.25,39.25Q82.2656,39.25,82.3438,39.25L84.1875,39.25Q84.1875,39.1562,80.25,23.5312L74.7344,23.5312L80.2188,23.5312Q79.2812,19.9375,78.1406,15.5L74.7344,15.5L78.1094,15.5Q77.2188,11.8906,76.1719,7.78125L74.8594,7.78125Q74.7656,7.78125,74.7656,7.73438L74.7656,7.57812L74.7344,7.57812L74.7344,7.28125L74.7812,7.28125Q74.8125,7.1875,74.8594,7.1875L76,7.1875Q75.7031,6,75.7031,5.90625Q75.8594,5.75,76.0781,5.75L76.125,5.75Q76.125,5.84375,76.4688,7.1875L81.8906,7.1875L81.9531,2.71875Q81.9531,2.625,81.9531,2.625L81.9531,2.71875L81.9531,7.1875L83.6094,7.1875L83.3281,5.70312L83.7031,5.53125Q83.8594,6.01562,84.0625,7.42188L85.8594,7.42188Q85.9375,7.42188,85.9531,7.42188L88.8594,7.42188Q88.8594,7.1875,88.8594,7.1875L88.8594,2.67188L88.8594,7.1875L90.1719,7.1875Q90.4062,6.03125,90.5312,6.03125Q90.6406,6.03125,90.875,6.20312L90.625,7.1875L95.0625,7.1875L95.0625,7.125L94.8125,6.07812Q94.9219,5.95312,95.1719,5.85938Q95.5,6.85938,95.5,7.1875L95.9375,7.1875L96,2.95312Q96,2.85938,96,2.85938L96,2.95312L96,7.42188L96.1562,7.42188Q96.25,7.42188,96.2656,7.42188L100.484,7.42188Q100.5,7.42188,100.594,7.42188L101.906,7.42188Q101.953,7.42188,102.266,5.95312Q102.641,6.04688,102.641,6.25L102.438,7.1875L103.453,7.1875L103.5,2.67188L103.5,7.1875L109.828,7.1875Q109.891,7.17188,110.266,5.79688L110.359,5.75Q110.703,5.84375,110.703,5.95312Q110.406,7.03125,110.406,7.1875L110.984,7.1875L111.016,2.67188L111.016,7.21875Q111.016,7.23438,111.016,7.28125L111.016,7.6875Q111.016,7.73438,111.016,7.76562L111.016,44.1406L111.016,39.5781L103.547,39.5781L103.5,44.1406L103.5,39.5781L101.641,39.5781Q100.906,42.625,100.781,42.625Q100.438,42.5156,100.438,42.3906L101.156,39.5781L97.2031,39.5781Q97.2031,39.7656,97.7344,41.8125Q97.4219,41.9688,97.2969,41.9688Q96.7188,39.5781,96.6406,39.5781L96.0625,39.5781L96,44.0938Q96,44.1875,96,44.1875L96,44.0938L96,39.5781L89,39.5781L89,44.2188L89,39.9844Q88.7188,41.2656,88.6094,41.2656Q88.2656,41.1719,88.2656,41.0469Q88.6094,39.75,88.6094,39.75L84.8438,39.75L84.8438,39.7969Q85.0625,40.625,85.0625,40.7969Q84.75,40.9531,84.6875,40.9531Q84.375,39.75,84.2969,39.75L82.0156,39.75ZM89.0625,37.8438L89.0625,38.1562Q89.125,37.8438,89.125,37.7656Q89.1094,37.7656,89.0625,37.8438ZM88.9688,38.2031L88.9688,37.9844Q88.9219,38.0625,88.875,38.1562Q88.9219,38.1562,88.9688,38.2031ZM96.0625,37.3125L96.0625,39.0312L96.5,39.0312L96.5,38.9844L96.0625,37.3125ZM74.5,31.5312L79,31.5312L74.5,31.5312ZM127,26.8906L127.109,26.9688L127.234,26.7969L127.109,26.7969Q127,26.7969,127,26.8906ZM125.953,12.3438Q125.453,12.8594,124.5,13.5L120.25,16.6406Q124.172,13.9062,125.953,12.9688L125.953,12.3438ZM126.062,11.1562L126.078,11.1406Q126.172,11.2031,126.297,11.2031L126.344,11.2031Q126.078,10.875,126.078,10.75L126.062,10.75L126.062,11.1562ZM125.969,11.2031L125.969,10.9688Q125.922,11.0625,125.844,11.2031L125.969,11.2031ZM125.953,7.64062L124.984,7.64062L124.984,7.6875Q125.484,8.4375,125.953,9.14062L125.953,7.64062ZM120.406,15.3281Q117.953,16.9375,117.25,16.9375L117.25,17.875L117.297,17.875Q118.531,16.8281,120.531,15.3281L120.406,15.3281ZM118.891,8.10938Q119.5,7.6875,119.5,7.64062L118.891,7.64062L118.891,8.10938ZM118.766,12.8906Q117.672,13.5625,117.359,13.5625L117.25,13.5625L117.25,14.6094Q117.766,14.0781,118.766,13.2188L118.766,12.8906ZM118.859,12.7344L118.859,13.0312Q119.766,12.2812,121.062,11.2656Q119.719,12.1875,118.859,12.7344ZM118.766,8.20312L118.766,7.64062L118.688,7.64062Q118.672,7.875,118.312,8.46875L118.359,8.46875Q118.578,8.32812,118.766,8.20312ZM127.781,7.29688L127.781,7.51562Q127.781,7.64062,127.641,7.64062L126.047,7.64062L126.047,9.29688Q128.828,12.9844,130.719,15.5L132.391,15.5L130.797,15.5Q132.938,18.5625,133.703,19.6562L133.703,14Q133.703,11.7188,133.703,7.64062L131.219,7.64062Q131.094,7.64062,131.094,7.51562L131.094,7.29688L127.781,7.29688ZM120.453,15.4219L120.578,15.4219Q121.25,14.9219,122.031,14.3594Q121.188,14.9531,120.453,15.4219ZM126.047,12.25L126.047,12.9219Q127.375,12.4219,127.828,12.4219Q127.969,12.4688,128.062,12.4688Q126.938,11.3125,126.875,11.3125Q126.875,11.6562,126.047,12.25ZM128.828,15.4375Q129.328,15.2188,129.547,15.2188L129.828,15.2188L129.828,15.1719Q129.375,14.4531,129.297,14.4531Q129.297,15.0781,128.375,15.6094L128.375,15.6562L128.422,15.6562Q128.547,15.5781,128.656,15.5312L128.656,15.4375L128.828,15.4375ZM121.641,7.64062Q121.641,8.09375,119.859,9.8125Q122.312,8.03125,123,7.64062L121.641,7.64062ZM133.797,8.10938L133.797,8.21875L133.844,8.21875Q133.953,8.21875,133.953,8.10938L133.797,8.10938ZM135.266,8.10938L135.203,8.39062L135.266,8.39062Q135.594,8.17188,135.594,8.10938L135.266,8.10938ZM137.391,7.64062Q137.391,8.14062,135.625,10.3125L135.625,10.3594L135.688,10.3594L139.328,7.64062L137.391,7.64062ZM142.328,7.64062L142.328,7.79688Q142.547,7.79688,142.719,7.96875L142.719,7.64062L142.328,7.64062ZM124.328,8.3125Q124.328,8.48438,124.203,8.64062L124.531,8.64062L124.531,8.59375Q124.391,8.3125,124.328,8.3125ZM124.875,8.6875Q124.875,9.40625,122.281,11.3906L120.141,13.2188Q124.766,9.85938,125.469,9.85938L125.594,9.85938L125.688,9.90625L125.688,9.85938Q124.953,8.8125,124.938,8.6875L124.875,8.6875ZM134.297,9.90625L134.297,10.6562Q134.531,10.4062,135.312,9.29688L134.297,9.90625ZM117.25,10.5469L117.25,11.0469Q117.672,10.7656,118.109,10.2188Q117.547,10.5469,117.25,10.5469ZM142.656,11.4219L142.75,11.4688L142.75,11.2969Q142.656,11.3281,142.656,11.4219ZM134.391,13.9531L134.297,13.9531L134.297,14.875Q135.375,13.8125,137.938,11.7344Q134.969,13.9531,134.391,13.9531ZM142.219,12.375Q142.547,12.375,142.719,12.5312L142.719,11.8438Q142.641,11.8438,142.219,12.375ZM125.734,15.4531Q128.062,13.9062,128.859,13.9062L128.969,13.9062L128.969,13.8438Q128.406,13.1094,128.406,13.0156Q127.984,13.8906,126.188,15.125Q125.734,15.375,125.734,15.4531ZM141.047,14.7969L141.094,14.7969Q141.891,14.3125,142.312,14.3125L142.359,14.3125Q142.531,14.3125,142.719,14.4844L142.719,13.3125Q142.328,13.75,141.047,14.7969ZM134.297,20.6094L134.297,21.1719Q141.188,16.3125,142.203,16.3125L142.328,16.3125Q142.469,16.3125,142.719,16.4531L142.719,15.6875L142.672,15.6875Q142.5,15.7812,141.891,15.9062Q136.891,19.25,135.156,20.3438Q134.609,20.6094,134.297,20.6094ZM130.203,15.6406Q130.125,15.9531,129.719,16.3906L129.797,16.3906Q130.125,16.2344,130.359,16.2344L130.438,16.2344L130.672,16.3125Q130.266,15.6406,130.203,15.6406ZM130.984,16.7031Q130.984,17,130.672,17.4219L130.75,17.4219Q130.922,17.2969,131.156,17.2969L131.312,17.2969L131.438,17.375L131.438,17.2969Q131.062,16.8125,131.062,16.7031L130.984,16.7031ZM133.797,17.2812L133.797,17.4375Q133.859,17.4375,133.953,17.2812L133.797,17.2812ZM142.219,17.7031Q142.453,17.7031,142.719,17.875L142.719,17.2031Q142.641,17.2031,142.219,17.7031ZM134.438,18.2188L134.297,18.2188L134.297,18.8281L135.578,17.7188Q134.734,18.2188,134.438,18.2188ZM131.219,18.2656L131.219,18.4375L131.328,18.5L131.375,18.5Q131.266,18.3594,131.266,18.2656L131.219,18.2656ZM117.406,19.2344L117.25,19.2344L117.25,19.9531Q117.703,19.5312,119.016,18.4844L118.969,18.4844Q117.844,19.2344,117.406,19.2344ZM141.641,19.7344Q142.016,19.6094,142.297,19.6094L142.344,19.6094Q142.531,19.6094,142.719,19.7812L142.719,18.7188Q142.406,19,141.641,19.7344ZM132.391,18.9062Q132.391,19.8438,128.719,21.8906Q126.609,23.25,123.047,25.25L123.047,25.2969L123.094,25.2969Q123.938,24.9531,127.688,22.625Q131.906,20,133.031,20L133.234,20.0781Q132.453,18.9062,132.391,18.9062ZM140.375,19.5Q140.188,19.6875,137.75,21.2344L137.75,21.2812L137.859,21.2812Q138.031,21.0938,140.484,19.5781L140.484,19.5L140.375,19.5ZM133.703,20.5469Q133.703,21.5625,128.234,24.7031L127.469,25.25L127.594,25.25Q129.281,24.625,133.969,21.3125Q134.062,21.2656,134.125,21.2656L134.125,21.2188Q133.703,20.5469,133.703,20.5469ZM117.453,21.0156L117.25,21.0156L117.25,21.5156Q117.953,20.9062,118.062,20.9062L118.062,20.8438L118.016,20.8438Q117.734,21.0156,117.453,21.0156ZM142.297,21.7656L142.719,22L142.719,21.4219Q142.406,21.7656,142.297,21.7656ZM122.797,25.0156L122.797,25.0781L122.891,25.0781Q127.141,22.25,127.328,22.2031L127.328,22.1562L127.281,22.1562Q126.344,22.625,122.797,25.0156ZM117.109,23.4844L117.109,23.75L117.156,23.75Q117.438,23.4844,117.547,23.4844L117.547,23.4062L117.438,23.4062L117.109,23.4844ZM141.656,23.6719L141.703,23.6719Q141.906,23.5469,142.359,23.5L142.672,23.6719L142.719,23.6719L142.719,22.6875Q142.422,22.9688,141.656,23.6719ZM117.25,24.4219L117.25,24.6406Q117.5,24.5469,117.531,24.4219L117.25,24.4219ZM142.672,24.4688Q142.672,24.625,142.172,25.0781Q142.484,25.0781,142.719,25.25L142.719,24.4688L142.672,24.4688ZM126.438,25.8125Q126.438,25.8906,126.719,26.0312L126.719,25.6875Q126.531,25.8125,126.438,25.8125ZM120.594,26.4688L120.594,26.5156L120.719,26.5156L120.719,26.4688L120.594,26.4688ZM117.109,8.10938L117.109,8.21875L117.156,8.21875Q117.266,8.21875,117.266,8.10938L117.109,8.10938ZM138.766,39.3438L138.875,39.3438L138.875,39.2344Q138.766,39.2344,138.766,39.3438ZM141.281,38.8906L142.719,38.8906L142.719,37.9688Q142.125,38.1719,141.281,38.8906ZM142.531,37.1875L142.75,37.2969L142.75,36.9219Q142.672,36.9219,142.531,37.1875ZM135.938,38.7188L135.938,38.7812Q135.953,38.8906,136.047,38.8906L137.312,38.8906Q137.312,38.4375,139.891,36.1562Q136.375,38.7188,135.938,38.7188ZM118.891,39.2344L120.578,39.2344Q120.578,38.6875,123.531,35.8281L118.891,39.2344ZM117.109,35.9219L117.109,36.1406Q117.484,35.875,117.484,35.8125L117.219,35.8125Q117.109,35.8281,117.109,35.9219ZM142.672,34.5469Q142.641,34.7656,140.812,36.4844Q142.016,35.6562,142.312,35.6562L142.359,35.6562L142.719,35.75L142.719,34.5469L142.672,34.5469ZM134.734,37.0156Q134.859,37.0156,135.109,37.5625Q136.219,36.375,138.672,34.4219Q136.078,36.3438,134.734,36.9688L134.734,37.0156ZM125.797,32.5156Q126.109,32.5156,126.516,32.6094L126.719,32.6094L126.719,32.2344Q126.516,32.2344,125.797,32.5156ZM139.781,34.5469Q141.891,33.1875,142.359,33.1875L142.719,33.3438L142.719,32.0625Q142,32.7969,139.781,34.5469ZM130.766,32.2812L130.766,32.3281Q130.797,32.4375,130.891,32.4375L131.047,32.2031L130.938,32.2031Q130.844,32.2812,130.766,32.2812ZM142.703,31.6094L142.703,31.7031L142.75,31.7031L142.75,31.6094L142.703,31.6094ZM133.031,34.375L133.031,34.4219Q133.406,34.9688,133.406,35.0312Q134.859,33.5938,137.5,31.7656Q138.703,30.9375,138.719,30.8906Q133.609,34.375,133.031,34.375ZM138.391,31.2031Q138.766,31.0156,138.766,30.9531Q138.391,31.1406,138.391,31.2031ZM126.016,30.2344Q126.016,30.3594,125.359,31L125.422,31L125.688,30.9375L126.016,31.1094L126.719,31.1094L126.719,30.2344L126.016,30.2344ZM117.359,32.7344L117.25,32.7344L117.25,33.6094L117.297,33.6094Q118.781,32.2656,121.547,30.1719Q118,32.7344,117.359,32.7344ZM117.578,30.2031L117.25,30.2031L117.25,30.75Q117.859,30.2031,117.859,30.2031L117.578,30.2031ZM130.422,30.5781Q130.438,30.5781,130.75,30.9219Q130.75,30.7656,131.484,30.0469L131.438,30.0469Q130.844,30.3906,130.422,30.5312L130.422,30.5781ZM129.125,29.9531Q129.156,30.0469,129.25,30.0469L129.297,30.0469L129.297,29.9531L129.125,29.9531ZM138.531,31.6875Q141.656,29.5312,142.406,29.5312L142.719,29.7031L142.719,28.3125Q141.141,29.8594,138.531,31.6875ZM132.031,32.8906L132.031,32.9375Q132.359,33.5156,132.438,33.5156Q133.297,32.4844,134.688,31.4688L138.812,28.3125Q132.672,32.8906,132.031,32.8906ZM126.578,27.4375Q125.125,28.5781,122.844,30.2344Q121.438,31.2031,121.422,31.2812Q125,28.8438,125.516,28.8438L125.891,28.8438Q126.281,28.8438,126.719,29.0156L126.719,27.4375L126.578,27.4375ZM128.312,27.2344Q128.578,27.6406,128.641,27.6406Q128.641,27.5469,129.297,26.9062L129.234,26.9062Q128.5,27.2344,128.312,27.2344ZM120.156,26.2344Q118.156,27.6094,117.25,27.6094L117.25,28.5625Q118.797,27.1562,120.25,26.2812L120.25,26.2344L120.156,26.2344ZM111.5,31.0781L116,31.0781L111.5,31.0781ZM140.609,10.5938L140.609,10.7969Q141.891,10.0156,142.297,10.0156L142.344,10.0156Q142.531,10.0156,142.719,10.1875L142.719,8.70312Q142.031,9.45312,140.609,10.5938ZM140.781,10.9375L140.781,10.75Q139.859,11.4531,138.625,12.3594Q139.891,11.4844,140.781,10.9375ZM143.281,31.4531L147.984,31.4531L147.984,23.0469L143.594,23L147.984,23L147.984,15.5469L143.281,15.5469Q143.281,19.7344,143.281,22.5469L143.281,31.4531ZM143.281,15.4531L147.984,15.4531L147.984,7.59375L144.109,7.59375L144.109,7.625Q144.109,7.64062,143.984,7.64062L143.281,7.64062Q143.281,11.9844,143.281,15.4531ZM144.281,39.4219L147.984,39.4219L147.984,31.5469L143.281,31.5469Q143.281,34.4844,143.281,39.2344L144.156,39.2344Q144.281,39.2344,144.281,39.2656L144.281,39.4219ZM128.5,39.4219L133.719,39.4219L133.75,36.8438Q133.75,36.7344,133.75,36.7344L133.75,36.8438L133.75,39.4219L134.016,39.4219L134.016,39.2656Q134.016,39.2344,134.109,39.2344L135.312,39.2344L135.312,39.1719Q127.984,27.7344,127.281,26.7344L127.281,34.0625Q127.281,35.9062,127.281,39.2344L128.375,39.2344Q128.5,39.2344,128.5,39.2656L128.5,39.4219ZM126.062,33.8125L126.062,34.2344Q126.062,34.2656,126.078,34.2656L126.078,33.8125L126.062,33.8125ZM125.969,34.1875L125.969,33.9062Q125.891,33.9531,125.797,34.0938L125.797,34.1406Q125.875,34.1406,125.969,34.1875ZM116.75,39.5781L111.734,39.5781L114.5,39.5781L114.5,39.2969Q114.5,39.2344,114.594,39.2344L116.75,39.2344Q116.75,29.5,116.75,23.0469L111.688,23L116.75,23L116.75,15.5469L111.688,15.5L116.75,15.5Q116.75,12.6406,116.75,7.64062L114.344,7.64062Q114.219,7.64062,114.219,7.5L114.219,7.26562L111.734,7.26562L114.203,7.26562Q114.234,7.26562,114.312,7.26562L116.75,7.26562L116.75,5.98438Q116.75,5.85938,116.828,5.85938L117.125,5.85938Q117.25,5.89062,117.25,5.98438L117.25,7L118.766,7L118.828,2.625Q118.828,2.53125,118.828,2.53125L118.828,2.625L118.828,7L123.812,7Q123.578,6.59375,122.609,5.25L122.609,5.17188Q122.609,5.10938,122.938,4.92188L123.062,4.92188L124.547,7L125.953,7L126.016,2.98438L126.016,7.40625L127.547,7.40625Q127.688,7.40625,127.688,7.40625L130.875,7.40625Q130.891,7.40625,130.984,7.40625L133.75,7.40625L133.75,2.625Q133.75,2.53125,133.75,2.53125L133.75,2.625L133.75,5.84375L134.109,5.84375Q134.25,5.85938,134.25,5.95312L134.25,7L140.641,7L140.688,2.57812L140.688,7L142.719,7L142.719,5.51562Q142.734,5.39062,142.828,5.39062L143.172,5.39062Q143.281,5.4375,143.281,5.54688L143.281,7.40625L144.016,7.40625Q144.125,7.40625,144.125,7.40625L147.984,7.40625L148.016,2.84375L148.016,44.1406L148.016,39.5781L143.281,39.5781L143.281,40.6094Q143.281,40.7344,143.156,40.7344L142.844,40.7344Q142.719,40.7344,142.719,40.6094L142.719,39.5781L140.734,39.5781L140.688,44.1406L140.688,39.5781L136.484,39.5781L137.703,41.4844L137.281,41.8281Q135.984,39.9062,135.75,39.5781L133.828,39.5781L133.75,44.0938Q133.75,44.1875,133.75,44.1875L133.75,44.0938L133.75,39.5781L126.297,39.5781L126.297,40.6094Q126.297,40.7344,126.391,40.7344L126.641,40.7344Q126.719,40.7344,126.719,40.6094L126.719,39.5781L126.016,39.5781L126.016,44.1406L126.016,39.5781L118.891,39.5781L118.828,44.0938Q118.828,44.1875,118.828,44.1875L118.828,44.0938L118.828,39.5781L117.25,39.5781L117.25,41.2812Q117.25,41.3906,117.109,41.3906L116.75,41.3906Q116.75,41.3906,116.75,41.2812L116.75,39.5781ZM126.062,34.9688L126.062,36.3281Q126.062,36.3438,126.078,36.3438L126.078,34.9688L126.062,34.9688ZM125.953,35.8438L125.953,34.6406Q125.688,35.0312,123.906,36.6875Q125.328,35.75,125.625,35.75L125.672,35.75Q125.812,35.75,125.953,35.8438ZM126.062,37.7969L126.062,37.9219L126.078,37.9219L126.078,37.7969L126.062,37.7969ZM125.953,39.2188L125.953,38.1719Q125.5,38.4219,124.703,39.2188L125.953,39.2188ZM126.062,38.5781L126.062,39.4062L126.078,39.4062L126.078,38.5781L126.062,38.5781ZM178.016,20.875L178.016,22.4219L178.016,20.875ZM170.703,28.3125L170.75,28.4375L170.75,29.3125Q170.75,29.4375,170.641,29.4375L170.594,29.3125L170.594,28.4375Q170.594,28.3125,170.703,28.3125ZM175.219,10.4062L175.219,10.5625L175.438,10.5625Q175.438,10.4688,175.219,10.4062ZM177.969,35.0469Q177.781,35.2969,177.562,35.5469Q174.875,38.375,171.672,39.4219L177.969,39.4219L177.969,35.0469ZM168.828,15.4375Q168.359,15.2969,168.078,15.2969Q167.297,15.2969,166.734,15.4375L168.828,15.4375ZM166.406,15.5625Q166,15.7031,165.719,15.9062Q164.234,16.6719,163.391,18.8125L163.391,19.0625L163.297,19.0625L163.297,19.0312Q162.547,20.8125,162.547,23.4219L162.547,23.5781Q162.547,29.125,166.422,30.8125Q167.25,31.0312,167.812,31.0312Q169.438,31.0312,170.828,29.6406Q170.828,29.4219,171.438,28.9219Q172.016,28.0156,172.016,27.8438L171.969,27.8438Q171.062,27.7656,170.547,27.7656L170.5,27.6562L170.5,27.2344L170.547,27.2344Q171.312,27.2344,171.656,27.2344L172.125,27.2344L172.219,27.2969Q172.516,25.7969,172.656,25.7969Q173.109,25.7969,173.109,26.0625L172.828,27.7031Q176.031,27.7031,177.969,27.7031L178.016,26.3125L178.016,28.1875Q180.219,28.1875,180.609,28.1875Q180.938,25.9062,181.031,25.9062Q181.531,25.9062,181.531,26.0312L181.203,28.2031Q181.719,28.2188,181.984,28.2188L182.625,28.2188Q182.703,28.25,182.703,28.3594L182.703,28.7812Q182.703,28.7812,182.609,28.7812L181.047,28.7812Q180.422,32.0781,178.031,35L178.031,39.4219L184.984,39.4219L184.984,31.0781L180.344,31.0312L184.984,31.0312L184.984,23L180.594,22.9531L184.984,22.9531L184.984,15.5312L180.25,15.5312Q180.766,16.7812,181.094,18.2031L181.359,18.2031Q181.891,18.2031,182.938,18.2031L183.031,18.3281L183.031,18.5781Q183.031,18.7969,182.875,18.7969Q182.391,18.7969,181.125,18.7969Q181.297,20.0469,181.359,20.25Q181.266,20.2969,180.812,20.3438Q180.719,20.1875,180.609,18.8594L180.562,18.8594Q173.484,18.8594,172.875,18.8594L173.281,20.5Q172.844,20.6562,172.703,20.6562Q172.328,19.25,172.328,19.0625Q170.703,19.1094,170.281,19.1094L170.219,19.0156L170.219,18.75Q170.219,18.625,172.047,18.625Q171.125,16.3594,169.188,15.5625Q169.156,15.5625,169.109,15.5625L166.406,15.5625ZM178.047,11.6562Q178.094,11.7188,178.141,11.7656Q179.391,13.3906,180.203,15.4375L184.984,15.4375L184.984,7.5625L178.047,7.5625L178.047,11.6562ZM172.094,7.5625Q175.391,8.70312,177.953,11.5625L177.953,7.5625L172.094,7.5625ZM169.156,34.6094L164.516,37.5938L164.516,37.6406L164.609,37.6406L169.266,34.6562L169.266,34.6094L169.156,34.6094ZM176.406,35.4531Q176.547,35.4531,176.734,35.5469Q177.641,34.5625,177.641,34.5156L177.594,34.5156Q176.406,35.3906,176.406,35.4531ZM157.391,35.9531L157.547,36.0469L157.719,35.7812L157.672,35.7812Q157.391,35.8594,157.391,35.9531ZM159.672,36.9531L159.672,37.0312L160.234,37.2969Q160.281,36.9844,161.719,35.7969L161.656,35.7969Q160.109,36.9062,159.672,36.9531ZM158.625,36.0781L158.625,36.2031Q158.719,36.2031,158.828,36.3125Q158.828,36.2188,159,36.0312L159,35.9844L158.625,36.0781ZM169.375,39.0625L169.375,39.1406L169.422,39.1406Q171.141,38.9062,171.141,38.4688Q171.797,37.6406,173.812,36.2031Q170.25,38.6406,169.375,39.0625ZM161.938,38.25L161.938,38.2969Q161.984,38.2969,162.547,38.5156Q162.547,38.2812,162.922,37.8281L162.875,37.8281Q162.312,38.1875,161.938,38.25ZM165.266,39.8125L165.703,39.8125Q165.703,39.625,165.75,39.5312L165.703,39.5312Q165.266,39.7188,165.266,39.8125ZM166.047,31.1875Q166.047,31.4688,165.766,31.7812L165.844,31.7812Q166.5,31.375,166.5,31.3125L166.5,31.25Q166.234,31.1875,166.047,31.1875ZM179.062,31.3906Q179.25,31.3906,179.453,31.5625L179.672,30.8906Q179.25,31.125,179.062,31.3906ZM154.672,31.3906L154.672,31.4688Q154.719,31.5625,154.719,31.6406Q154.812,31.6406,154.922,31.3906L154.672,31.3906ZM164.844,30.7344Q164.844,30.9688,164.672,31.1719L164.719,31.1719Q165.141,30.9688,165.266,30.9688L165.266,30.8906Q165.172,30.8906,164.891,30.7344L164.844,30.7344ZM176.75,30.9688L176.75,31.0156L176.859,31.0156L176.859,30.9688L176.75,30.9688ZM177.891,30.0469Q177.891,30.125,177.453,30.2969L177.453,30.3438L177.562,30.3438Q177.562,30.2656,177.984,30.0938L177.984,30.0469L177.891,30.0469ZM179.609,30.1875Q179.672,30.1875,179.812,30.3125L179.859,30.0156L179.859,29.9688Q179.625,30.0781,179.609,30.1875ZM178.25,28.7188Q178.25,28.9844,177.891,29.2656L177.938,29.2656Q179.078,28.7812,179.219,28.7812L178.359,28.7812L178.25,28.7188ZM172.266,28.6562L172.312,28.6562Q172.438,28.6562,172.438,28.5312L172.391,28.5312Q172.266,28.5469,172.266,28.6562ZM162.594,28.2031Q162.594,28.2656,162.422,28.3594Q162.641,28.3594,162.797,28.4375L162.797,28.4062Q162.703,28.2656,162.703,28.2031L162.594,28.2031ZM154.297,29.2969Q154.5,29.9531,154.5,30.125L154.578,30.125Q155.875,28.7812,158.172,26.7031Q154.938,29.2969,154.297,29.2969ZM161.891,27.0156L162.141,26.9375Q162.453,27.0625,162.469,27.0625Q162.312,26.6719,162.312,26.4844Q162.281,26.4844,161.891,27.0156ZM153.516,26.8281L153.516,26.9219Q153.609,26.9219,153.609,26.8281L153.516,26.8281ZM158.484,27.6094Q161.203,25.7188,161.766,25.7188L161.891,25.7188L162.141,25.7969L161.984,24.4688Q160.875,25.6875,158.484,27.6094ZM161.891,22.6875Q161.891,22.7812,161.609,23Q161.75,23,161.938,23.1094L161.938,22.6875L161.891,22.6875ZM161.609,21.8281Q161.812,21.8281,161.938,21.9375L161.984,21.9375L161.984,21.5Q161.609,21.7344,161.609,21.8281ZM160.172,20.1875L160.172,20.2656L160.297,20.2656Q161.422,19.4219,161.984,19.4219L162.047,19.4219Q162.281,19.4688,162.422,19.4688Q162.422,19.375,162.75,18.4219L162.703,18.4219Q160.312,20.1875,160.172,20.1875ZM175.594,18.7969L175.594,18.8594L175.719,18.8594L175.719,18.7969L175.594,18.7969ZM180.312,17.375Q180.312,17.5469,179.203,18.1406L179.25,18.1406Q180.516,18.1406,180.516,18.0938Q180.453,17.375,180.312,17.375ZM175.422,16.9375Q173.781,18.1719,173.109,18.375L173.109,18.4219L173.656,18.4219Q174.359,18.4219,174.359,18Q175.469,16.9844,175.469,16.9375L175.422,16.9375ZM154.797,17L154.469,17L154.344,17.4844Q154.938,17,155.078,17L154.797,17ZM171.453,17.2969Q171.469,17.4219,171.562,17.4219Q171.828,17.1094,171.828,17.0781L171.781,17.0781Q171.453,17.2031,171.453,17.2969ZM155.516,19.0938L155.516,19.1406L155.641,19.1406Q155.688,19.0469,159.406,16.8125L159.406,16.7656L159.344,16.7656Q157.812,17.6406,155.516,19.0938ZM159.266,16.875L159.266,16.9219L159.359,16.9219L159.359,16.875L159.266,16.875ZM179.766,15.9844Q179.766,16.125,179.656,16.3281L179.984,16.4375Q179.812,16.125,179.812,15.9844L179.766,15.9844ZM179.234,14.6719Q179.234,15.125,178.25,16Q179.016,15.5,179.406,15.5L179.672,15.6719L179.672,15.625Q179.312,14.7656,179.312,14.6719L179.234,14.6719ZM155.578,17.7812L155.656,17.7812Q158.531,16.0781,161.109,14.2344Q157.859,16.1406,155.578,17.7812ZM156.078,14.5781Q156.688,14.1562,156.75,14.1562L156.75,14.0781L156.688,14.0781Q156.359,14.25,156.078,14.3125L156.078,14.5781ZM178.5,14.2188L178.5,14.4844Q178.547,14.4844,178.672,14.5469L178.672,14.4844Q178.547,14.3125,178.547,14.2188L178.5,14.2188ZM169.641,15.0625L169.641,15.125Q170.062,15.3438,170.141,15.3438Q170.141,15.125,171.547,13.9062Q170.234,14.7969,169.641,15.0625ZM178.234,12.9219Q178.234,13.2031,177.781,13.7031L177.828,13.7031Q178.094,13.5312,178.359,13.5312L178.406,13.5312L178.672,13.5781Q178.281,13.0156,178.281,12.9219L178.234,12.9219ZM177.562,11.9844Q177.562,12.0938,177.453,12.3281L177.828,12.3281Q177.641,11.9844,177.562,11.9844ZM157.016,11.9844L156.891,12.1562L156.891,12.2188Q157.031,12.1094,157.125,12.1094Q157.125,11.9844,157.016,11.9844ZM164.234,11.2812L164.234,11.3281L164.344,11.3281L164.344,11.2812L164.234,11.2812ZM176.344,10.7812Q176.344,11.25,174.969,12.375Q176.516,11.3906,177,11.3906Q176.484,10.7812,176.344,10.7812ZM163.297,10.8438Q163.172,10.9375,163.031,11.0156Q158.969,13.625,156.594,15.2969Q158.641,14,163.297,10.9375L163.297,10.8438ZM174.734,28.0469Q174.734,28.4219,173.953,28.6562Q171.734,30.3281,171.125,30.3281Q170,31.4062,168.922,31.6562Q168.172,31.7656,168.172,31.8125Q168.172,32.2188,166.125,33.8125Q164.625,34.8438,164.609,34.8438L164.609,34.9219L164.656,34.9219Q166.172,34.1562,170.391,31.2656Q173.625,29,175.312,28.1719L175.312,28.125Q174.734,28.125,174.734,28.0469ZM163.203,8.84375Q164.766,7.84375,164.844,7.84375L164.844,7.79688L164.766,7.79688Q163.688,7.9375,163.688,8.125Q163.688,8.34375,163.203,8.84375ZM170.219,7.6875Q170.219,8.21875,169.844,8.57812L169.891,8.57812Q171.156,7.98438,171.156,7.90625Q170.359,7.73438,170.219,7.6875ZM172.328,8.29688L172.328,8.625Q172.516,8.53125,172.781,8.53125L172.781,8.45312Q172.641,8.45312,172.328,8.29688ZM173.25,9.125L173.25,9.23438L173.422,9.23438L173.422,9.17188Q173.344,9.17188,173.25,9.125ZM167.734,9.01562Q167.734,9.04688,165.016,10.7812L165.016,10.8438L165.109,10.8438Q165.141,10.75,167.859,9.0625L167.859,9.01562L167.734,9.01562ZM166.953,11.3906L166.953,11.4375L167.062,11.4375L170.344,9.40625L170.344,9.35938L170.297,9.35938L166.953,11.3906ZM174.516,9.90625L174.516,9.95312L174.609,9.95312L174.609,9.90625L174.516,9.90625ZM168.172,12L168.172,12.0625L168.219,12.0625Q170.578,10.5156,171.781,9.90625L171.781,9.84375L171.703,9.84375Q170.625,10.4375,168.172,12ZM148.5,31.0312L153,31.0312L148.5,31.0312ZM155.938,14.3281Q155.844,14.3438,155.766,14.3438Q155.656,14.2969,155.609,14.2969Q155.281,15.0312,155.281,15.125L155.328,15.125Q155.672,14.875,155.938,14.6719L155.938,14.3281ZM162.75,7.5625L156.078,7.5625L156.078,12.4219Q156.5,11.7969,156.969,11.2188Q157.125,10.8906,158.078,10.2344Q158.484,9.6875,159.25,9.35938Q161.281,7.875,161.984,7.875Q162.359,7.70312,162.75,7.5625ZM163.266,7.42188L163.266,2.85938L163.266,7.35938Q165.188,6.8125,167.312,6.8125Q169.016,6.8125,170.594,7.15625L170.672,2.92188Q170.672,2.82812,170.672,2.82812L170.672,2.92188L170.672,7.20312Q171.188,7.29688,171.672,7.4375L177.969,7.4375L178.016,2.875L178.016,7.4375L184.984,7.4375L185.016,2.875L185.016,44.1406L185.016,39.5781L178.047,39.5781L178.016,44.1406L178.016,39.5781L171.203,39.5781Q170.953,39.625,170.75,39.6875L170.672,44.0938Q170.672,44.1875,170.672,44.1875L170.672,44.0938L170.672,39.7188Q169.25,40,167.734,40L167.125,40Q165.25,40,163.531,39.5781L163.406,39.5781L163.406,44.1406L163.406,39.5781L156.078,39.5781L156,44.0938Q156,44.1875,156,44.1875L156,44.0938L156,39.5781L148.844,39.5L155.938,39.5L156,35.2344Q156,35.1406,156,35.1406L156,35.2344L156,39.4219L163.031,39.4219Q159.031,38.1875,156.047,34.375Q152.938,29.4844,152.938,23.125L152.938,23L148.688,23L152.938,23L152.938,22.75Q152.938,18.7656,154.391,15.5312L148.734,15.4844L154.406,15.4844Q155.031,14,155.938,12.6406L155.938,7.5625L148.781,7.42188L155.938,7.42188L156,2.92188Q156,2.82812,156,2.82812L156,2.92188L156,7.4375L163.266,7.4375Q163.266,7.42188,163.266,7.42188ZM163.406,10.8125L163.406,10.9062Q165,9.84375,166.875,8.59375Q168.062,7.82812,168.734,7.5625L167.297,7.5625Q167.016,8.5,163.406,10.8125ZM193.891,8.17188L193.891,8.21875L194.016,8.21875L194.016,8.17188L193.891,8.17188ZM210.094,39.4062L210.297,39.4062Q210.438,39.4062,210.469,39.125Q210.094,39.3125,210.094,39.4062ZM211.969,38.9375L213.625,38.9375L213.625,37.8281L213.578,37.8281Q213.375,37.8281,211.969,38.9375ZM213.312,37.0625Q213.469,37.0625,213.625,37.1562L213.625,36.7188Q213.547,36.7188,213.312,37.0625ZM193.891,35.875L193.891,36.1406Q194.297,35.8594,194.297,35.8125Q194.062,35.875,193.891,35.875ZM213.078,35.4688Q213.453,35.4688,213.625,35.6406L213.625,34.9219Q213.547,34.9219,213.078,35.4688ZM201.984,38.9375L203.188,38.9375Q203.281,38.3438,205.75,36.6094Q209.031,34.3438,209.031,34.2969Q203.688,37.9219,201.984,38.9375ZM213.391,34.0312L213.656,34.2031L213.656,33.75Q213.578,33.75,213.391,34.0312ZM194.438,32.6719L194.281,32.6719L194.281,33.4531L195.531,32.3906L195.484,32.3906Q194.906,32.6719,194.438,32.6719ZM213.078,31.7656Q213.078,32.4375,210.812,34.125Q212.719,32.8438,213.172,32.8438L213.281,32.8438Q213.453,32.8438,213.625,33.0156L213.625,31.7656L213.078,31.7656ZM206.797,31.8125Q206.797,32.5469,204,34.4688Q203.516,34.9375,200.391,37.1562L200.391,37.2344L200.484,37.2344Q206.422,32.9844,208.469,31.8125L206.797,31.8125ZM204.797,32.3281L204.797,32.4375Q204.891,32.3906,204.953,32.3906L204.953,32.3281L204.797,32.3281ZM201.953,30.9375L201.953,30.9844L202.234,30.9375L202.5,30.9375L202.656,31.0469L202.719,31.0469L202.719,30.3438Q202.094,30.9375,201.953,30.9375ZM194.125,30.7812L193.891,30.7812L193.891,31.1562Q194.391,30.8281,194.391,30.7344L194.125,30.7812ZM202.266,29.0312L202.266,29.0938Q202.484,29.0938,202.719,29.2656L202.719,28.8125Q202.391,29.0312,202.266,29.0312ZM200.531,27.7969L200.531,27.8438L200.625,27.8438L200.625,27.7969L200.531,27.7969ZM200.781,27.625L200.781,27.6719L200.859,27.6719Q201.281,27.4844,201.281,27.4219L201.234,27.4219Q200.906,27.625,200.781,27.625ZM205.781,27.2969L205.781,27.3438L205.875,27.3438L205.875,27.2969L205.781,27.2969ZM201.297,27.1562L201.297,27.2031L201.469,27.2031Q201.469,27.1094,201.797,26.9844L201.797,26.9375L201.719,26.9375Q201.391,27.1562,201.297,27.1562ZM193.891,25.1875L193.891,25.4688Q194.219,25.2656,194.219,25.1875L193.891,25.1875ZM207.625,27.2031L209.078,27.2031Q209.078,26.6719,211.266,24.4531L211.219,24.4531Q208.016,27.0312,207.625,27.2031ZM194.281,22.7812L194.281,23.1094Q194.75,22.7344,194.844,22.7344L194.844,22.6562L194.781,22.6562Q194.547,22.7812,194.281,22.7812ZM202.812,22.125Q196.281,27.2969,194.703,28Q194.5,28.0781,194.281,28.0781L194.281,28.8594Q197.203,26.2812,202.922,22.1719L202.922,22.125L202.812,22.125ZM194.281,21.1094L194.281,21.5625Q195.172,20.8438,195.266,20.8438L195.266,20.7812L195.219,20.7812Q194.688,21.0938,194.281,21.1094ZM211.547,19.7656Q211.547,20.0469,211.312,20.375L211.391,20.375Q211.719,20.2656,211.719,20.1719L211.719,19.7656L211.547,19.7656ZM207.125,19.8125Q207.125,20.6406,204.219,22.5938Q201,24.9062,199.812,25.6094L199.812,25.6562L199.859,25.6562Q200.266,25.6562,205.062,22.2812Q207.578,20.5469,208.969,19.8125L207.125,19.8125ZM202.594,20.375Q202.828,20.3125,202.828,20.2188L202.75,20.2188Q202.688,20.2188,202.594,20.375ZM194.453,19.2656L194.281,19.2656L194.281,19.8281L195.016,19.2188L194.453,19.2656ZM201.859,18.8281L201.922,18.8281Q202.109,18.7344,202.344,18.7344Q202.516,18.7344,202.719,18.8906L202.719,18.0781L201.859,18.8281ZM201.484,17.4844L201.484,17.5625L201.531,17.5625Q201.938,17.3125,202.344,17.25L202.719,17.4062L202.719,16.5156Q201.812,17.3906,201.484,17.4844ZM196.656,16.25Q195.062,17.2969,194.281,17.2969L194.281,18.0469Q195.484,17.0312,196.75,16.2969L196.75,16.25L196.656,16.25ZM209.969,15.1875L209.969,15.2344L210.141,15.2344Q210.25,15.2344,210.25,15.1406L210.25,15.0625L210.203,15.0625Q210.062,15.1875,209.969,15.1875ZM212.188,15.1875L213.625,15.1875L213.625,14.1406Q213.047,14.375,212.188,15.1875ZM206.875,15.1719L207.859,15.1719Q208.281,14.4531,209.969,13.0469Q207.875,14.5938,206.875,15.1719ZM213.391,13.0938Q213.547,13.2031,213.625,13.2031L213.625,12.8281Q213.562,12.8281,213.391,13.0938ZM207.625,12.3594Q207.391,12.6406,203.734,14.7969L203.734,14.8438L203.844,14.8438Q204.406,14.7031,207.75,12.4062L207.75,12.3594L207.625,12.3594ZM213.578,10.8438Q213.578,11,212.578,12L212.656,12Q213.094,11.7188,213.281,11.7188Q213.406,11.7188,213.625,11.875L213.625,10.8438L213.578,10.8438ZM194.281,13.7969L194.281,14.75L194.359,14.75Q195.297,13.7812,198.938,10.7812Q195.016,13.7969,194.281,13.7969ZM198.984,10.9219Q199.219,10.8594,199.219,10.75Q198.984,10.8594,198.984,10.9219ZM194.281,11.1562Q195.109,10.4688,195.109,10.3906L195.062,10.3906Q194.734,10.6094,194.281,10.7344L194.281,11.1562ZM213.578,10.3281Q213.656,10.3281,213.75,10.375L213.75,10.0938Q213.672,10.0938,213.578,10.3281ZM207.359,9.04688Q207.312,9.04688,200.594,13.5156L200.594,13.5781L200.703,13.5781Q204.531,11.1094,207.484,9.09375L207.484,9.04688L207.359,9.04688ZM204.172,13.2812L204.172,13.3438L204.266,13.3438Q208.766,10.6094,211.812,8.53125L211.812,8.48438L211.766,8.48438Q208.969,10.0156,204.172,13.2812ZM213.234,7.79688Q213.234,8.48438,212.078,9.34375L212.078,9.39062L212.172,9.39062Q212.781,8.875,213.281,8.875Q213.406,8.875,213.625,9.04688L213.625,7.79688L213.234,7.79688ZM209.469,7.8125Q209.469,8.875,203.344,12.6875Q198.438,15.9531,195.703,17.8594L195.438,18.1406L195.484,18.1406Q199.156,15.9531,207.281,10.2031Q209.859,8.4375,211.094,7.8125L209.469,7.8125ZM207.25,8.17188L207.25,8.26562Q207.344,8.21875,207.422,8.21875L207.422,8.17188L207.25,8.17188ZM201.391,8.17188L201.391,8.26562Q201.484,8.21875,201.562,8.21875L201.562,8.17188L201.391,8.17188ZM198.469,7.79688Q198.469,8.28125,196.609,10.0938L199.703,7.79688L198.469,7.79688ZM195.625,7.8125Q195.625,7.98438,195.328,8.57812L195.375,8.57812Q196.344,7.8125,196.438,7.8125L195.625,7.8125ZM185.5,31.375L190,31.375L185.5,31.375ZM207.266,28.3438L207.312,28.4688L207.312,29.2812Q207.312,29.4062,207.219,29.4062L207.172,29.2812L207.172,28.4688Q207.172,28.3438,207.266,28.3438ZM214.469,26.2812L214.469,29.3125L214.469,26.2812ZM193.031,24.5469L193.078,24.6406L193.078,25.0469Q193.078,25.1406,192.984,25.1406L192.938,25.0469L192.938,24.6406Q192.938,24.5469,193.031,24.5469ZM214.469,20.875L214.469,22.4219L214.469,20.875ZM193,19.625L193,19.7188L193,22.0156Q193,22.1094,193,22.1094L193,22.0156L193,19.7188Q193,19.625,193,19.625ZM193.078,7.73438L193.078,15.4531L193.766,15.4531L193.766,7.73438L193.078,7.73438ZM199.938,10.8281L199.938,11.1875Q203.938,8.48438,205.188,7.8125L203.234,7.8125Q203.234,8.48438,199.938,10.8281ZM207.234,39.4062L207.234,39.3125Q207.156,39.3594,207.141,39.3594L207.141,39.4062L207.234,39.4062ZM200.172,36.4531L200.172,36.2344Q197.25,38.2344,196.047,38.9375L197.453,38.9375Q197.562,38.3281,200.172,36.4531ZM214.375,39.2344L217.625,39.2344Q217.734,39.25,217.734,39.2812L217.734,39.4219L221.984,39.4219L221.984,31.4219L217.344,31.375L221.984,31.375L221.984,23.1719L217.594,23.1094L221.984,23.1094L221.984,15.5469L216.891,15L221.984,15L221.984,7.57812L217.844,7.57812L217.844,7.6875Q217.844,7.73438,217.75,7.73438L214.516,7.73438L214.516,11.875L214.375,11.875L214.375,7.73438L214.375,15.1875L216.438,15.1875Q216.547,15.2188,216.547,15.3281L216.547,15.7656Q216.547,15.7656,216.422,15.7656L214.25,15.7656L214.25,16.8906Q214.25,17,214.141,17L213.859,17Q213.625,17,213.625,16.9062L213.625,15.8125L203.281,15.8125L203.281,19.1875L211.719,19.1875L211.719,16.8906Q211.719,16.8125,211.812,16.8125L212.234,16.8125Q212.234,16.8125,212.234,16.9062L212.234,30.0781Q212.234,30.1875,212.141,30.1875L211.766,30.1875Q211.766,30.1875,211.766,30.0938L211.766,27.7969L205.75,27.7969Q205.422,27.7969,204.859,27.7969Q204.562,27.8125,203.281,28.5625L203.281,31.1875L213.625,31.1875L213.625,30Q213.641,29.8906,213.75,29.8906L214.141,29.8906Q214.25,29.9219,214.25,30L214.25,31.1875L216.719,31.1875Q216.828,31.1875,216.828,31.2969L216.828,31.7344Q216.828,31.7344,216.734,31.7344L214.375,31.7344L214.375,39.2344L214.375,35.2969L214.375,39.2344ZM189.797,39.5781L189.797,39.3281Q189.812,39.2344,189.906,39.2344L192.938,39.2344L193,35.5156Q193,35.4219,193,35.4219L193,35.5156L193,39.2344L193.766,39.2344L193.766,15.5469L193.078,15.5469L193.078,16.0312Q193.078,16.1562,192.984,16.1562L192.938,16.0312L192.938,15.5469L185.781,15L192.938,15L192.938,7.73438L190.828,7.73438Q190.703,7.73438,190.703,7.70312L190.703,7.60938L185.781,7.60938L190.734,7.60938Q190.75,7.60938,190.828,7.60938L192.938,7.60938L193,2.73438Q193,2.64062,193,2.64062L193,2.73438L193,7.1875L193.766,7.1875L193.766,4.45312Q193.766,4.34375,193.875,4.34375L194.234,4.34375Q194.234,4.35938,194.234,4.45312L194.234,7.1875L200.016,7.1875L200.062,2.6875L200.062,7.1875L207.172,7.1875L207.234,2.73438Q207.234,2.64062,207.234,2.64062L207.234,2.73438L207.234,7.1875L213.75,7.1875L213.75,5.26562Q213.766,5.14062,213.844,5.14062L214.141,5.14062Q214.203,5.17188,214.203,5.28125L214.203,7.42188L214.328,7.42188L214.328,2.6875L214.328,7.42188L217.625,7.42188Q217.703,7.42188,217.719,7.42188L221.984,7.42188L222.016,2.85938L222.016,44.1406L222.016,39.5781L214.516,39.5781L214.469,44.1406L214.469,39.5781L214.266,39.5781L214.266,41Q214.266,41.1094,214.156,41.1094L213.859,41.1094Q213.625,41.1094,213.625,41L213.625,39.5781L207.312,39.5781L207.234,44.0938Q207.234,44.1875,207.234,44.1875L207.234,44.0938L207.234,39.5781L200.109,39.5781L200.062,44.1406L200.062,39.5781L194.234,39.5781L194.234,41.9844Q194.234,42.1094,194.109,42.1094L193.766,42.1094Q193.766,42.1094,193.766,41.9844L193.766,39.5781L193.078,39.5781L193.125,44.0938Q193.125,44.1875,193.125,44.1875L193.125,44.0938L193.125,39.5781L185.781,39.5781L189.797,39.5781ZM200.062,36.7969Q200.078,36.7812,200.125,36.75Q203.578,34.2656,203.812,34.1406L203.812,34.0938L203.688,34.0938Q201.625,35.5156,200.062,36.5938L200.062,36.7969ZM207.312,39.2344L207.688,39.2344Q207.688,38.9688,208.125,38.2812Q207.562,38.7812,207.312,38.9844L207.312,39.2344ZM200.016,11.0625Q199.703,11.2812,199.359,11.5156Q196.172,13.9062,195.984,14L195.984,14.0781L196.078,14.0781Q198.297,12.5625,200.016,11.4062L200.016,11.0625ZM185.5,23.1094L191.25,23.1094L185.5,23.1094ZM228.297,8.07812L228.297,8.20312L228.344,8.20312Q228.453,8.20312,228.453,8.07812L228.297,8.07812ZM239.953,39.4219L242.531,39.4219L242.531,39.2656Q242.547,39.2188,242.641,39.2188L244.609,39.2188L244.609,38.4375Q243.703,36.0625,242.266,33.7188Q241.203,31.9531,238.297,28.75L238.297,39.2188L239.844,39.2188Q239.953,39.2188,239.953,39.2656L239.953,39.4219ZM244.375,39.3906L244.422,39.3906Q244.391,39.3125,244.375,39.2656L244.375,39.3906ZM248.062,38.8125L248.062,38.8906L248.297,38.8906Q248.359,38.8906,248.453,38.6562L248.391,38.6562Q248.172,38.8125,248.062,38.8125ZM245.75,38.8125L245.75,38.8906L246.234,38.8906Q246.281,38.8906,246.562,38.4375L246.516,38.4375Q246.266,38.625,245.75,38.8125ZM235.844,39.1875L237.703,39.1875L237.703,38.1094Q237.062,38.3906,235.844,39.1875ZM253.891,38.3906L253.891,38.4375L253.984,38.4375L253.984,38.3906L253.891,38.3906ZM253.719,37.8438L253.719,37.9375L253.766,37.9375L253.766,37.8438L253.719,37.8438ZM237.078,37.8906L237.203,37.8906L237.203,37.7656Q237.078,37.7969,237.078,37.8906ZM230,39.2188L231.578,39.2188Q232.047,38.2969,233.078,37.4062L234.703,35.7344L230,39.2188ZM253.125,35.5156Q253.125,35.6562,252.891,35.9531Q253.078,35.9531,253.375,36.0625Q253.172,35.6562,253.172,35.5156L253.125,35.5156ZM228.297,35.7812L228.297,36.1094Q228.672,35.8281,228.672,35.7812L228.297,35.7812ZM244.688,37.2656Q244.938,37.8125,244.938,37.9375L245.062,37.9375Q245.531,37.2969,248.219,35.0625Q245.953,36.6562,244.688,37.2188L244.688,37.2656ZM243.156,35.2812L243.156,35.4062Q243.266,35.4062,243.266,35.2812L243.156,35.2812ZM237.094,34.5781Q237.094,34.7188,235.031,36.6562Q236.375,35.7344,236.859,35.7344Q237.047,35.8281,237.141,35.8281L237.141,34.5781L237.094,34.5781ZM252.25,35.0625L252.531,35L252.641,35L252.906,35.0625Q252.906,34.9531,252.688,34.4531L252.25,35.0625ZM237.156,33.7969Q237.156,33.9062,236.922,34.125Q237.062,34.125,237.203,34.2344L237.203,33.7969L237.156,33.7969ZM251.766,32.5469Q251.562,33.4531,248.5,35.9531L248.391,36.125Q251.484,33.9062,252.203,33.9062L252.406,33.9531Q251.984,32.9531,251.844,32.5469L251.766,32.5469ZM236.984,32.9219L237.203,33.0312L237.203,32.7031Q237.109,32.7031,236.984,32.9219ZM251.016,31.0938Q251.016,31.25,250.859,31.5156Q251.141,31.5156,251.344,31.5938Q251.062,31.1875,251.062,31.0938L251.016,31.0938ZM250.422,30.0781Q250.359,30.3594,250.109,30.625L250.547,30.5312Q250.641,30.5781,250.75,30.5781Q250.5,30.0781,250.422,30.0781ZM237,30.5312L237,30.5781Q237.578,30.5781,237.703,30.7031L237.703,29.9219Q237.109,30.5312,237,30.5312ZM228.422,32.4688L228.328,32.4688L228.328,33.5156Q229.328,32.5625,232.484,29.9219Q229.047,32.4688,228.422,32.4688ZM241.938,32.1406Q242.438,32.875,242.484,32.875Q243.234,31.9375,245.641,29.875Q243.016,31.7031,241.938,32.1406ZM228.328,29.8594L228.328,30.4219Q229.094,29.7031,229.469,29.5312L229.469,29.4688L229.406,29.4688Q228.719,29.8594,228.328,29.8594ZM239.328,30.3125Q239.328,30.4062,239.5,30.4688Q239.5,30.4062,239.609,30.2656L239.5,30.2656Q239.375,30.3125,239.328,30.3125ZM248.766,27.8125Q248.766,28.375,245.438,31.2656Q248.766,28.875,249.344,28.875L249.578,28.875L249.578,28.7969Q248.953,27.9219,248.766,27.8125ZM240.125,27.4844Q239.266,28.125,238.703,28.3125Q238.703,28.3906,239.141,28.75Q239.141,28.5469,240.25,27.6094Q240.25,27.4844,240.125,27.4844ZM232.562,30.9531Q236.094,28.5469,236.703,28.5469L236.875,28.5469L237.703,28.6406L237.703,27.4688Q237.109,27.5469,235.188,28.9688L232.562,30.9531ZM237.094,27.3594L237.094,27.4062Q237.094,27.4844,237.266,27.5781Q237.266,27.4844,237.422,27.2969L237.422,27.25L237.375,27.25Q237.188,27.3594,237.094,27.3594ZM248.125,27.0469L248.062,27.375L248.172,27.3125L248.453,27.375Q248.453,27.2812,248.125,27.0469ZM246.922,26.9375L246.875,27.0625L246.875,27.1562L247.156,27.1562Q247.156,27.0781,246.922,26.9375ZM228.328,27.375L228.328,28.2656Q229.312,27.4375,231.75,25.5469Q229.031,27.375,228.328,27.375ZM228.328,24.3281L228.328,24.6094Q228.531,24.3906,228.656,24.3906L228.656,24.3281L228.328,24.3281ZM245.281,24.4531Q245.516,24.3594,245.516,24.2812Q245.281,24.3594,245.281,24.4531ZM250.312,22.7969L249.344,23.5L249.734,23.6094Q250.125,23.1406,250.375,22.7969L250.312,22.7969ZM228.328,22.7656L228.328,23.1094Q228.766,22.7188,228.859,22.7188L228.859,22.6562L228.812,22.6562Q228.562,22.7656,228.328,22.7656ZM241.344,21.7969L238.984,21.7969Q238.984,22.3594,235.797,23.9062L235.797,23.9531L235.844,23.9531Q241.094,22.1406,241.609,21.7969L241.344,21.7969ZM241.078,26.4219Q244.359,24.0312,248.062,21.6094L248.062,21.5469L248.016,21.5469Q246.766,22.1406,242.391,25.1875L241.078,26.4219ZM228.375,21.4844Q228.375,21.4375,228.328,21.4375L228.328,21.9219Q229.047,21.3125,229.141,21.3125L229.141,21.2656L229.078,21.2656Q228.719,21.4375,228.375,21.4844ZM237.047,20.4844L237.047,20.5469Q237.578,20.5469,237.703,20.6562L237.703,19.9375Q237.156,20.4844,237.047,20.4844ZM247.578,22.875L247.578,22.9375L247.672,22.9375Q250.109,21.1875,250.953,21.0938L251.062,21.0938Q251.25,21.0938,251.438,21.2812Q251.766,20.3281,251.891,19.5938Q249.875,21.4219,247.578,22.875ZM228.422,19.4844L228.328,19.4844L228.328,20.1094Q229.125,19.3906,229.234,19.3906L229.234,19.3281L229.188,19.3281Q228.844,19.4844,228.422,19.4844ZM236.906,18.3438Q236.719,18.5469,236.375,18.8906L236.641,18.8438L236.766,18.8438Q236.828,18.8438,236.906,18.875L236.906,18.3438ZM237,18.9219Q237.312,18.9688,237.703,19.0156L237.703,18.0781L237.469,18.0781Q237.469,18.125,237,18.25L237,18.9219ZM244.094,18.0938L244.094,18.5469Q244.984,17.8438,245.078,17.8438L245.078,17.7656L245,17.7656Q244.469,18.0938,244.094,18.0938ZM251.938,16.8125Q251.938,17.0156,251.016,17.8594L251.062,17.8594Q251.25,17.7344,251.516,17.7344Q251.812,17.7344,252.047,17.9844L252.047,17.375L252,16.8125L251.938,16.8125ZM243.484,17.1562L243.484,17.2812L243.547,17.2812Q243.625,17.2812,243.719,17.1094L243.641,17.1094Q243.547,17.1562,243.484,17.1562ZM228.578,17.1094L228.328,17.1094L228.328,18.0312L230.281,16.3438Q228.953,17.1094,228.578,17.1094ZM237.641,16.25Q236.625,17.1406,236,17.2812L236,17.3281L236.062,17.3281Q236.828,17.1094,237.156,17.1094Q237.359,17.1094,237.703,17.2812L237.703,16.25L237.641,16.25ZM251.359,16.1094Q251.453,16.1094,251.641,16.2812L251.641,16.2031Q251.594,16,251.594,15.8281Q251.5,15.8281,251.359,16.1094ZM238.297,15.375L238.297,21.2031L241.203,21.2031Q243.141,21.2031,243.547,18.3281Q243.547,16.0938,241.672,15.4219Q241.125,15.375,240.797,15.375L238.297,15.375ZM236.984,15.6562L236.984,15.7031Q237.062,15.7031,237.203,15.8281L237.203,15.5Q236.984,15.5625,236.984,15.6562ZM240.156,14.6875L240.156,14.7344L240.812,14.7344Q240.812,14.4062,241.359,13.9219Q240.25,14.6875,240.156,14.6875ZM251.344,13.5312Q251.266,14.1406,249.422,15.375L249.422,15.4219L249.516,15.4219Q250.766,14.5156,251.391,14.5156Q251.391,14.5625,251.391,14.5625L251.391,13.5312L251.344,13.5312ZM242.25,14.9531L242.25,15.0469Q242.453,15.0469,242.734,15.25Q243.453,14.4375,245.062,13.0312L242.25,14.9531ZM250.547,12.3281Q250.547,12.7969,250.219,13.0781L250.266,13.0781Q250.359,13.0781,250.641,12.9844Q250.703,13.0312,250.969,13.0312Q250.594,12.4219,250.594,12.3281L250.547,12.3281ZM243.297,11.4062Q242.828,11.7969,238.828,14.3906L238.828,14.4375Q239.828,14,243.391,11.4844L243.391,11.4062L243.297,11.4062ZM228.328,13.4062L228.328,14.3906Q229.594,13.2188,232.156,11.25Q229.078,13.4062,228.328,13.4062ZM248.938,10.375Q248.938,11.0781,246.938,12.5781L246.734,12.8125Q249.047,11.2031,249.516,11.2031L249.797,11.25Q249.797,11.1719,248.938,10.375ZM228.484,10.4375L228.328,10.4375L228.328,10.9219Q229.141,10.2344,229.141,10.1719Q228.656,10.4375,228.484,10.4375ZM247.859,9.53125Q247.859,9.9375,247.422,10.375Q248.125,9.98438,248.469,9.98438Q248.469,9.89062,247.906,9.53125L247.859,9.53125ZM238.391,13.4062L238.391,13.4688L238.516,13.4688Q242.406,11,244.516,9.57812L244.516,9.53125L244.469,9.53125Q242.594,10.6094,238.391,13.4062ZM241.578,9.03125Q237.828,11.375,237.641,11.6562L237.641,11.7031Q239.078,10.8125,241.688,9.07812L241.688,9.03125L241.578,9.03125ZM246.234,8.65625Q246.234,9.42188,244.359,10.75Q246.703,9.15625,247.25,9.15625L247.25,9.09375Q246.359,8.65625,246.234,8.65625ZM243.609,7.8125L243.609,7.85938L243.688,7.98438Q243.688,8.73438,240.406,10.75Q238.906,11.7969,236.609,13.1406L236.609,13.1875L236.844,13.1875Q243.016,9.04688,245.234,8.25L245.281,8.25L245.281,8.20312L243.609,7.8125ZM241.938,7.67188Q242,7.82812,242.047,7.82812Q242.234,7.71875,242.328,7.71875L242.328,7.67188L241.938,7.67188ZM237.375,7.64062Q237.375,8.46875,234.297,10.7656L233.25,11.6562Q235.984,9.9375,237.234,9.40625Q239.281,8.01562,240.281,7.64062L237.375,7.64062ZM235.844,8.07812L235.844,8.20312L235.891,8.20312Q235.984,8.15625,236.047,8.15625L236.047,8.07812L235.844,8.07812ZM232.766,7.64062Q232.766,8.17188,230.938,9.75Q233.453,7.96875,234.109,7.64062L232.766,7.64062ZM229.797,7.625Q229.797,7.89062,229.469,8.375L229.469,8.42188Q230.625,7.625,230.625,7.625L229.797,7.625ZM222.5,31.0781L227,31.0781L222.5,31.0781ZM227.734,23.0469L222.547,23L227.734,23L227.734,15.375L222.547,15.3281L227.734,15.3281L227.734,7.75L224.594,7.75Q224.484,7.75,224.484,7.6875L224.484,7.5625L222.578,7.5625L222.578,7.25L224.484,7.25Q224.5,7.25,224.594,7.25L227.734,7.25L227.734,4.78125Q227.75,4.6875,227.859,4.6875L228.266,4.6875Q228.266,4.6875,228.266,4.78125L228.266,7L229.688,7L229.75,2.625Q229.75,2.53125,229.75,2.53125L229.75,2.625L229.75,7L236.906,7L236.953,2.57812L236.953,7L240.344,7Q241.719,7,242.953,7.4375L243.844,7.4375Q243.938,7.4375,243.938,7.53125L243.844,7.57812Q249.672,8.625,251.938,13.7969Q252.641,15.7188,252.641,17.5625Q252.641,19.6094,251.891,21.3438L251.891,21.7188L251.797,21.7188L251.797,21.5625Q250.703,23.9062,248.219,25.7188L247.969,25.9062Q252.625,31.4219,255.156,39.2188L257.094,39.2188Q257.203,39.2188,257.203,39.2656L257.203,39.4219L258.984,39.4219L258.984,31.125L254.344,31.0781L258.984,31.0781L258.984,23.0469L254.594,23L258.984,23L258.984,15.375L253.891,15.3281L258.984,15.3281L258.984,7.5625L251.891,7.5625L251.844,11.8594L251.844,7.5625L244.859,7.5Q244.766,7.5,244.766,7.5L244.859,7.5L251.797,7.5L251.844,2.875L251.844,7.4375L258.984,7.4375L259.016,2.875L259.016,44.1406L259.016,39.5781L255.453,39.5781Q255.547,39.9062,256.078,41.2031Q255.719,41.4219,255.578,41.4219Q254.969,39.9219,254.781,39.5781L251.891,39.5781L251.844,44.1406L251.844,39.5781L245.641,39.5781L246.188,41.1406Q246.188,41.2812,245.719,41.375Q245.172,39.9062,245.016,39.5781L244.812,39.5781L244.812,44.0938Q244.812,44.1875,244.812,44.1875L244.812,44.0938L244.812,39.5781L237.359,39.5781L237.359,40.875Q237.359,40.9688,237.422,40.9688L237.641,40.9688Q237.703,40.9688,237.703,40.875L237.703,39.5781L237.016,39.5781L237.016,44.1406L237.016,39.5781L229.812,39.5781L229.75,44.0938Q229.75,44.1875,229.75,44.1875L229.75,44.0938L229.75,39.5781L228.266,39.5781L228.266,41.4219Q228.266,41.5312,228.156,41.5312L227.734,41.5312Q227.734,41.5312,227.734,41.4219L227.734,39.5781L222.578,39.5781L224.641,39.5781L224.641,39.2969Q224.672,39.2188,224.766,39.2188L227.734,39.2188Q227.734,35.2188,227.734,32.8594L227.734,23.0469ZM251.844,26.2812L251.844,29.3125L251.844,26.2812ZM244.672,3.01562L244.672,3.10938L244.672,7.57812Q244.672,7.67188,244.672,7.67188L244.672,7.57812L244.672,3.10938Q244.672,3.01562,244.672,3.01562Z" fill="#2D52CC" fill-opacity="1"/></g></svg>